<svg width="54" height="54" viewBox="0 0 54 54" fill="none" xmlns="http://www.w3.org/2000/svg">
<rect width="54" height="54" fill="white" fill-opacity="0.01"/>
<path fill-rule="evenodd" clip-rule="evenodd" d="M26 22V25H29V22H26ZM31 22V25H34V22H31ZM33.1222 29.2056C32.7389 29.0778 32.2278 29.2056 31.8444 29.4611L29.0333 32.2722C25.4556 30.4833 22.5167 27.4167 20.6 23.8389L23.4111 21.0278C23.7944 20.6444 23.9222 20.1333 23.6667 19.75C23.2833 18.3444 23.0278 16.8111 23.0278 15.2778C23.0278 14.5111 22.5167 14 21.75 14H17.2778C16.5111 14 16 14.5111 16 15.2778C16 27.2889 25.7111 37 37.7222 37C38.4889 37 39 36.4889 39 35.7222V31.25C39 30.4833 38.4889 29.9722 37.7222 29.9722C36.1889 29.9722 34.6556 29.7167 33.1222 29.2056ZM36 25H39V22H36V25Z" fill="#EE6E56"/>
</svg>
