<svg width="165" height="8" viewBox="0 0 165 8" fill="none" xmlns="http://www.w3.org/2000/svg">
<path opacity="0.751019" fill-rule="evenodd" clip-rule="evenodd" d="M3.73986 0.934731C3.40847 0.934731 3.09761 1.00522 2.80726 1.14619C2.51692 1.28717 2.26382 1.48726 2.04796 1.74647C1.8321 2.00569 1.66185 2.32022 1.5372 2.69009C1.41255 3.05997 1.35023 3.47227 1.35023 3.92703C1.35023 4.22111 1.37987 4.49775 1.43915 4.75697C1.49844 5.01618 1.5828 5.25568 1.69225 5.47548C1.8017 5.69528 1.93243 5.89234 2.08445 6.06667C2.23646 6.24099 2.40519 6.38879 2.59065 6.51006C2.7761 6.63133 2.97523 6.72455 3.18805 6.78973C3.40087 6.85491 3.62281 6.88751 3.85387 6.88751C4.05756 6.88751 4.2605 6.86477 4.46267 6.81929C4.66485 6.77382 4.85942 6.7056 5.0464 6.61465C5.23338 6.5237 5.40895 6.41153 5.57312 6.27813C5.7373 6.14473 5.88323 5.99163 6.01092 5.81883L6.25262 6.01437C6.05196 6.29026 5.83686 6.51612 5.60733 6.69196C5.37779 6.8678 5.14673 7.0065 4.91415 7.10806C4.68157 7.20963 4.45355 7.27935 4.2301 7.31725C4.00664 7.35515 3.79914 7.3741 3.60761 7.3741C3.13941 7.3741 2.71074 7.28845 2.32158 7.11716C1.93243 6.94587 1.59801 6.71167 1.3183 6.41456C1.0386 6.11745 0.821225 5.76805 0.666172 5.36634C0.511119 4.96464 0.433594 4.53186 0.433594 4.06801C0.433594 3.77696 0.463236 3.48744 0.522521 3.19942C0.581806 2.91141 0.671492 2.6378 0.791582 2.37859C0.911672 2.11937 1.0614 1.87835 1.24078 1.65552C1.42015 1.43269 1.62993 1.23942 1.87011 1.07571C2.11029 0.911992 2.38087 0.783903 2.68185 0.691435C2.98284 0.598968 3.31422 0.552734 3.67601 0.552734C4.02868 0.552734 4.35854 0.599726 4.66561 0.693709C4.97268 0.787693 5.27062 0.930182 5.55944 1.12118L5.51384 0.620948H6.02004V2.78105H5.68257C5.64913 2.49 5.57996 2.23003 5.47507 2.00114C5.37019 1.77224 5.2349 1.57897 5.0692 1.42132C4.90351 1.26367 4.70817 1.14316 4.4832 1.05979C4.25822 0.976416 4.01044 0.934731 3.73986 0.934731ZM12.0784 2.67174C12.0723 2.39585 12.051 2.15559 12.0145 1.95095C11.978 1.7463 11.9142 1.57653 11.823 1.44162C11.7318 1.30671 11.6087 1.2059 11.4536 1.1392C11.2986 1.07251 11.1009 1.03916 10.8608 1.03916L10.0718 1.0437L10.0581 6.11425C10.0581 6.44774 10.049 6.69331 10.0308 6.85096L10.806 6.81458V7.22386H8.6125V6.91462C8.78579 6.90856 8.91652 6.87521 9.00469 6.81458C9.09286 6.75394 9.15518 6.67284 9.19166 6.57128C9.22815 6.46972 9.24639 6.35072 9.24639 6.2143V5.77318L9.26007 1.0528L8.29327 1.05735C8.09566 1.05735 7.9292 1.08994 7.79391 1.15512C7.65862 1.2203 7.54841 1.31959 7.46329 1.45299C7.37816 1.58638 7.3166 1.75388 7.27859 1.95549C7.24059 2.1571 7.22159 2.39585 7.22159 2.67174H6.875L6.92972 0.702637H12.3748L12.4295 2.67174H12.0784ZM14.125 3.7953C14.125 4.02571 14.1463 4.26446 14.1888 4.51154C14.2314 4.75863 14.296 5.00041 14.3827 5.23688C14.4693 5.47336 14.5788 5.69846 14.711 5.9122C14.8433 6.12593 14.9998 6.31238 15.1807 6.47155C15.3616 6.63071 15.5653 6.75729 15.7918 6.85127C16.0183 6.94525 16.2714 6.99224 16.5511 6.99224C16.8065 6.99224 17.0406 6.95359 17.2534 6.87628C17.4662 6.79897 17.6578 6.69286 17.828 6.55795C17.9983 6.42304 18.1472 6.26388 18.2749 6.08046C18.4026 5.89704 18.509 5.69998 18.5942 5.48927C18.6793 5.27857 18.7439 5.05346 18.788 4.81396C18.8321 4.57445 18.8541 4.35011 18.8541 4.14092C18.8541 3.91657 18.8298 3.66797 18.7811 3.39511C18.7325 3.12226 18.661 2.86684 18.5668 2.62885C18.4725 2.39086 18.357 2.16803 18.2202 1.96035C18.0834 1.75268 17.9253 1.5723 17.7459 1.41919C17.5666 1.26609 17.3667 1.14558 17.1462 1.05766C16.9258 0.969741 16.6864 0.925781 16.428 0.925781C16.0449 0.925781 15.709 1.01067 15.4201 1.18045C15.1313 1.35022 14.8911 1.57154 14.6996 1.84439C14.5081 2.11725 14.3644 2.42421 14.2687 2.76527C14.1729 3.10634 14.125 3.44968 14.125 3.7953ZM13.2109 3.96342C13.2109 3.70269 13.2398 3.43741 13.2976 3.16759C13.3553 2.89777 13.4435 2.63628 13.5621 2.38313C13.6807 2.12998 13.8296 1.89275 14.009 1.67144C14.1884 1.45012 14.3982 1.25609 14.6383 1.08935C14.8785 0.922603 15.1506 0.791483 15.4546 0.695983C15.7587 0.600483 16.0946 0.552734 16.4625 0.552734C16.8425 0.552734 17.1883 0.601241 17.5 0.698257C17.8116 0.795272 18.0905 0.926393 18.3368 1.09162C18.583 1.25685 18.7966 1.45088 18.9775 1.67371C19.1584 1.89654 19.3089 2.13453 19.429 2.38768C19.5491 2.64083 19.6388 2.90231 19.6981 3.17214C19.7573 3.44196 19.787 3.70572 19.787 3.96342C19.787 4.22111 19.7573 4.48411 19.6981 4.75242C19.6388 5.02073 19.5506 5.28145 19.4336 5.5346C19.3165 5.78775 19.1683 6.02574 18.9889 6.24857C18.8095 6.4714 18.599 6.66619 18.3573 6.83293C18.1156 6.99968 17.8435 7.13156 17.541 7.22857C17.2385 7.32559 16.9033 7.3741 16.5354 7.3741C16.1402 7.3741 15.7837 7.3271 15.466 7.23312C15.1483 7.13914 14.8664 7.01105 14.6201 6.84885C14.3738 6.68665 14.1618 6.49566 13.9839 6.27586C13.8061 6.05606 13.6601 5.82034 13.5461 5.56871C13.4321 5.31708 13.3477 5.05408 13.293 4.7797C13.2383 4.50533 13.2109 4.23324 13.2109 3.96342ZM20.9161 0.702637H22.3435C22.5594 1.19075 22.7654 1.66066 22.9615 2.11238C23.1576 2.56411 23.3498 3.00901 23.5383 3.4471C23.7268 3.88518 23.9146 4.32174 24.1015 4.7568C24.2885 5.19185 24.4808 5.63524 24.6784 6.08696H24.6967C24.7332 6.00207 24.7719 5.90809 24.813 5.80501C24.854 5.70193 24.8958 5.59583 24.9384 5.48668C24.9809 5.37754 25.0227 5.27143 25.0638 5.16835C25.1048 5.06527 25.1421 4.97129 25.1755 4.8864C25.4461 4.2073 25.7296 3.52365 26.026 2.83545C26.3224 2.14725 26.6151 1.43632 26.9039 0.702637H28.2857V1.01187C28.1671 1.00884 28.0653 1.02476 27.9801 1.05962C27.895 1.09449 27.8251 1.15133 27.7704 1.23016C27.7156 1.30898 27.6769 1.41357 27.6541 1.54394C27.6313 1.6743 27.626 1.83498 27.6381 2.02598L27.8844 6.26432C27.8905 6.37346 27.895 6.4773 27.8981 6.57583C27.9011 6.67436 27.9026 6.76455 27.9026 6.84641L28.5821 6.81457V7.22386H26.4889V6.91462C26.6348 6.91159 26.7504 6.88506 26.8355 6.83504C26.9206 6.78502 26.9852 6.71301 27.0293 6.61903C27.0734 6.52505 27.1 6.4106 27.1091 6.27569C27.1182 6.14078 27.1182 5.9854 27.1091 5.80956L26.8674 1.83953C26.8492 1.88501 26.8294 1.93275 26.8081 1.98278C26.7868 2.0328 26.7656 2.0851 26.7443 2.13967L24.642 7.31481H24.3638C24.1601 6.86005 23.9549 6.4053 23.7481 5.95054C23.5414 5.49578 23.3369 5.03799 23.1348 4.57717C22.9326 4.11635 22.7334 3.65174 22.5373 3.18334C22.3412 2.71494 22.152 2.23972 21.9696 1.75767L21.9605 2.16696C21.9544 2.31551 21.9491 2.48604 21.9445 2.67856C21.9399 2.87107 21.9339 3.07647 21.9263 3.29475C21.9187 3.51304 21.9118 3.74041 21.9057 3.97689C21.8997 4.21336 21.8936 4.45135 21.8875 4.69086C21.8814 4.93036 21.8753 5.16608 21.8693 5.39801C21.8632 5.62993 21.8586 5.85049 21.8556 6.05968C21.8525 6.19914 21.8495 6.33708 21.8464 6.47351C21.8434 6.60993 21.8343 6.73575 21.8191 6.85096L22.5214 6.81457V7.22386H20.7383V6.91462C20.8842 6.91159 20.9982 6.88658 21.0803 6.83959C21.1624 6.79259 21.2255 6.73045 21.2696 6.65314C21.3136 6.57583 21.3418 6.48639 21.3539 6.38483C21.3661 6.28327 21.3752 6.17488 21.3813 6.05968L21.5865 1.08009L20.9161 1.10282V0.702637ZM30.2261 6.20986C30.2018 6.28262 30.1805 6.3478 30.1623 6.40541C30.144 6.46301 30.1258 6.51606 30.1075 6.56457C30.0893 6.61308 30.071 6.66007 30.0528 6.70555C30.0346 6.75102 30.0148 6.79953 29.9935 6.85107L30.7232 6.81469V7.22397H28.9766V6.91473C29.1164 6.91473 29.2304 6.88669 29.3186 6.8306C29.4068 6.77452 29.4812 6.69493 29.542 6.59186C29.6029 6.48878 29.6583 6.36599 29.7085 6.2235C29.7587 6.08101 29.8157 5.92336 29.8795 5.75055L31.804 0.525391H32.0274L34.1115 5.82786C34.1389 5.89153 34.167 5.96808 34.1959 6.05752C34.2248 6.14695 34.2521 6.23866 34.278 6.33264C34.3038 6.42663 34.3236 6.51909 34.3373 6.61005C34.3509 6.701 34.3563 6.78134 34.3532 6.85107L34.9917 6.81469V7.22397H32.8529V6.91473C33.0262 6.9117 33.1539 6.87987 33.2359 6.81923C33.318 6.7586 33.3697 6.68432 33.391 6.5964C33.4123 6.50848 33.4123 6.4145 33.391 6.31445C33.3697 6.21441 33.3423 6.12042 33.3089 6.0325L32.9806 5.15937L30.5499 5.21394C30.483 5.40494 30.4237 5.58002 30.372 5.73919C30.3203 5.89835 30.2717 6.05524 30.2261 6.20986ZM31.3572 2.94029C31.2143 3.34048 31.0889 3.69291 30.981 3.9976C30.8731 4.30229 30.7765 4.57439 30.6914 4.81389H32.853L32.1872 3.03124L31.7677 1.88525H31.7494L31.3572 2.94029ZM40.426 2.67174C40.4199 2.39585 40.3987 2.15559 40.3622 1.95095C40.3257 1.7463 40.2619 1.57653 40.1706 1.44162C40.0794 1.30671 39.9563 1.2059 39.8013 1.1392C39.6462 1.07251 39.4486 1.03916 39.2084 1.03916L38.4195 1.0437L38.4058 6.11425C38.4058 6.44774 38.3967 6.69331 38.3784 6.85096L39.1537 6.81458V7.22386H36.9602V6.91462C37.1334 6.90856 37.2642 6.87521 37.3523 6.81458C37.4405 6.75394 37.5028 6.67284 37.5393 6.57128C37.5758 6.46972 37.594 6.35072 37.594 6.2143V5.77318L37.6077 1.0528L36.6409 1.05735C36.4433 1.05735 36.2769 1.08994 36.1416 1.15512C36.0063 1.2203 35.8961 1.31959 35.8109 1.45299C35.7258 1.58638 35.6643 1.75388 35.6262 1.95549C35.5882 2.1571 35.5692 2.39585 35.5692 2.67174H35.2227L35.2774 0.702637H40.7225L40.7772 2.67174H40.426ZM42.4727 3.7953C42.4727 4.02571 42.4939 4.26446 42.5365 4.51154C42.5791 4.75863 42.6437 5.00041 42.7303 5.23688C42.817 5.47336 42.9264 5.69846 43.0587 5.9122C43.1909 6.12593 43.3475 6.31238 43.5284 6.47155C43.7093 6.63071 43.913 6.75729 44.1395 6.85127C44.366 6.94525 44.6191 6.99224 44.8988 6.99224C45.1542 6.99224 45.3882 6.95359 45.6011 6.87628C45.8139 6.79897 46.0054 6.69286 46.1757 6.55795C46.3459 6.42304 46.4949 6.26388 46.6226 6.08046C46.7503 5.89704 46.8567 5.69998 46.9418 5.48927C47.0269 5.27857 47.0915 5.05346 47.1356 4.81396C47.1797 4.57445 47.2018 4.35011 47.2018 4.14092C47.2018 3.91657 47.1774 3.66797 47.1288 3.39511C47.0801 3.12226 47.0087 2.86684 46.9144 2.62885C46.8202 2.39086 46.7047 2.16803 46.5679 1.96035C46.431 1.75268 46.273 1.5723 46.0936 1.41919C45.9142 1.26609 45.7143 1.14558 45.4939 1.05766C45.2735 0.969741 45.0341 0.925781 44.7756 0.925781C44.3926 0.925781 44.0566 1.01067 43.7678 1.18045C43.479 1.35022 43.2388 1.57154 43.0473 1.84439C42.8557 2.11725 42.7121 2.42421 42.6163 2.76527C42.5205 3.10634 42.4727 3.44968 42.4727 3.7953ZM41.5586 3.96342C41.5586 3.70269 41.5875 3.43741 41.6452 3.16759C41.703 2.89777 41.7912 2.63628 41.9097 2.38313C42.0283 2.12998 42.1773 1.89275 42.3567 1.67144C42.536 1.45012 42.7458 1.25609 42.986 1.08935C43.2262 0.922603 43.4983 0.791483 43.8023 0.695983C44.1063 0.600483 44.4423 0.552734 44.8101 0.552734C45.1902 0.552734 45.536 0.601241 45.8476 0.698257C46.1592 0.795272 46.4382 0.926393 46.6844 1.09162C46.9307 1.25685 47.1443 1.45088 47.3252 1.67371C47.5061 1.89654 47.6566 2.13453 47.7766 2.38768C47.8967 2.64083 47.9864 2.90231 48.0457 3.17214C48.105 3.44196 48.1346 3.70572 48.1346 3.96342C48.1346 4.22111 48.105 4.48411 48.0457 4.75242C47.9864 5.02073 47.8983 5.28145 47.7812 5.5346C47.6642 5.78775 47.5159 6.02574 47.3366 6.24857C47.1572 6.4714 46.9467 6.66619 46.705 6.83293C46.4633 6.99968 46.1912 7.13156 45.8887 7.22857C45.5862 7.32559 45.251 7.3741 44.8831 7.3741C44.4879 7.3741 44.1314 7.3271 43.8137 7.23312C43.496 7.13914 43.214 7.01105 42.9677 6.84885C42.7215 6.68665 42.5094 6.49566 42.3316 6.27586C42.1537 6.05606 42.0078 5.82034 41.8938 5.56871C41.7798 5.31708 41.6954 5.05408 41.6407 4.7797C41.586 4.50533 41.5586 4.23324 41.5586 3.96342ZM54.6902 1.01187C54.5169 1.01794 54.3854 1.05053 54.2957 1.10964C54.206 1.16876 54.143 1.24835 54.1065 1.34839C54.07 1.44844 54.051 1.56668 54.0495 1.7031C54.048 1.83953 54.0472 1.99112 54.0472 2.15786V6.11425C54.0472 6.44774 54.0381 6.69331 54.0198 6.85096L54.6902 6.81458V7.22386H52.5879V6.91462C52.7642 6.90856 52.8972 6.87673 52.9869 6.81912C53.0766 6.76152 53.1397 6.6827 53.1762 6.58265C53.2127 6.4826 53.2317 6.36361 53.2332 6.22567C53.2347 6.08772 53.2355 5.9369 53.2355 5.77318V1.07554H51.9494C51.7579 1.08766 51.6203 1.14148 51.5367 1.23698C51.4531 1.33248 51.4052 1.4545 51.3931 1.60306V1.8077C51.3931 2.25943 51.3794 2.71115 51.352 3.16287C51.3247 3.6146 51.2813 4.04662 51.2221 4.45893C51.1628 4.87125 51.0852 5.25476 50.9895 5.60947C50.8937 5.96418 50.7789 6.27266 50.6452 6.5349C50.5114 6.79715 50.3579 7.00254 50.1846 7.1511C50.0113 7.29965 49.8152 7.37393 49.5963 7.37393C49.4838 7.37393 49.3759 7.35953 49.2725 7.33073C49.1691 7.30192 49.0772 7.26024 48.9966 7.20567C48.916 7.1511 48.8522 7.0844 48.8051 7.00557C48.7579 6.92675 48.7344 6.83883 48.7344 6.74182C48.7344 6.60539 48.7769 6.49094 48.8621 6.39847C48.9472 6.30601 49.0582 6.25674 49.195 6.25068C49.271 6.24765 49.3379 6.25901 49.3956 6.28478C49.4534 6.31055 49.5013 6.3439 49.5393 6.38483C49.5773 6.42576 49.6062 6.47199 49.6259 6.52353C49.6457 6.57507 49.6556 6.62358 49.6556 6.66905C49.6556 6.72666 49.648 6.77289 49.6328 6.80776C49.6176 6.84262 49.5917 6.87976 49.5552 6.91917C49.6069 6.96768 49.6601 6.99193 49.7149 6.99193C49.8456 6.99193 49.9832 6.90174 50.1276 6.72135C50.272 6.54096 50.405 6.26432 50.5266 5.89142C50.6482 5.51852 50.7485 5.04785 50.8276 4.4794C50.9066 3.91095 50.9462 3.23867 50.9462 2.46255V1.07554H50.7501L50.0751 1.11647V0.702637H54.6902V1.01187ZM56.6875 3.7953C56.6875 4.02571 56.7088 4.26446 56.7513 4.51154C56.7939 4.75863 56.8585 5.00041 56.9452 5.23688C57.0318 5.47336 57.1413 5.69846 57.2735 5.9122C57.4058 6.12593 57.5623 6.31238 57.7432 6.47155C57.9241 6.63071 58.1278 6.75729 58.3543 6.85127C58.5808 6.94525 58.8339 6.99224 59.1136 6.99224C59.369 6.99224 59.6031 6.95359 59.8159 6.87628C60.0287 6.79897 60.2203 6.69286 60.3905 6.55795C60.5608 6.42304 60.7097 6.26388 60.8374 6.08046C60.9651 5.89704 61.0715 5.69998 61.1567 5.48927C61.2418 5.27857 61.3064 5.05346 61.3505 4.81396C61.3946 4.57445 61.4166 4.35011 61.4166 4.14092C61.4166 3.91657 61.3923 3.66797 61.3436 3.39511C61.295 3.12226 61.2235 2.86684 61.1293 2.62885C61.035 2.39086 60.9195 2.16803 60.7827 1.96035C60.6459 1.75268 60.4878 1.5723 60.3084 1.41919C60.1291 1.26609 59.9292 1.14558 59.7087 1.05766C59.4883 0.969741 59.2489 0.925781 58.9905 0.925781C58.6074 0.925781 58.2715 1.01067 57.9826 1.18045C57.6938 1.35022 57.4536 1.57154 57.2621 1.84439C57.0706 2.11725 56.9269 2.42421 56.8312 2.76527C56.7354 3.10634 56.6875 3.44968 56.6875 3.7953ZM55.7695 3.96342C55.7695 3.70269 55.7984 3.43741 55.8562 3.16759C55.9139 2.89777 56.0021 2.63628 56.1207 2.38313C56.2392 2.12998 56.3882 1.89275 56.5676 1.67144C56.747 1.45012 56.9567 1.25609 57.1969 1.08935C57.4371 0.922603 57.7092 0.791483 58.0132 0.695983C58.3173 0.600483 58.6532 0.552734 59.0211 0.552734C59.4011 0.552734 59.7469 0.601241 60.0586 0.698257C60.3702 0.795272 60.6491 0.926393 60.8954 1.09162C61.1416 1.25685 61.3552 1.45088 61.5361 1.67371C61.717 1.89654 61.8675 2.13453 61.9876 2.38768C62.1077 2.64083 62.1974 2.90231 62.2567 3.17214C62.3159 3.44196 62.3456 3.70572 62.3456 3.96342C62.3456 4.22111 62.3159 4.48411 62.2567 4.75242C62.1974 5.02073 62.1092 5.28145 61.9922 5.5346C61.8751 5.78775 61.7269 6.02574 61.5475 6.24857C61.3681 6.4714 61.1576 6.66619 60.9159 6.83293C60.6742 6.99968 60.4021 7.13156 60.0996 7.22857C59.7971 7.32559 59.4619 7.3741 59.094 7.3741C58.6988 7.3741 58.3423 7.3271 58.0246 7.23312C57.7069 7.13914 57.4249 7.01105 57.1787 6.84885C56.9324 6.68665 56.7204 6.49566 56.5425 6.27586C56.3647 6.05606 56.2187 5.82034 56.1047 5.56871C55.9907 5.31708 55.9063 5.05408 55.8516 4.7797C55.7969 4.50533 55.7695 4.23324 55.7695 3.96342ZM67.4708 2.33522C67.4708 2.05933 67.4366 1.83574 67.3682 1.66445C67.2998 1.49316 67.2071 1.35976 67.0901 1.26426C66.973 1.16876 66.8362 1.1051 66.6796 1.07326C66.523 1.04143 66.3566 1.02703 66.1803 1.03006L65.5008 1.04825C65.3275 1.05432 65.196 1.08691 65.1063 1.14603C65.0166 1.20514 64.9535 1.28548 64.917 1.38705C64.8806 1.48861 64.8616 1.60836 64.86 1.7463C64.8585 1.88425 64.8578 2.03356 64.8578 2.19424V6.11425C64.8578 6.28403 64.8555 6.42955 64.8509 6.55082C64.8464 6.67209 64.838 6.77213 64.8258 6.85096L65.7789 6.81458V7.22386H63.3984V6.91462C63.5748 6.90856 63.707 6.87673 63.7952 6.81912C63.8834 6.76152 63.9457 6.6827 63.9822 6.58265C64.0186 6.4826 64.0376 6.36361 64.0392 6.22567C64.0407 6.08772 64.0414 5.9369 64.0414 5.77318V1.74858C64.0414 1.62125 64.0437 1.50074 64.0483 1.38705C64.0528 1.27336 64.0612 1.16952 64.0734 1.07554L63.3984 1.11647V0.702637H67.7308L67.7809 2.33522H67.4708ZM74.9965 1.01187C74.8232 1.01794 74.6917 1.05053 74.602 1.10964C74.5123 1.16876 74.4492 1.24835 74.4127 1.34839C74.3763 1.44844 74.3572 1.56668 74.3557 1.7031C74.3542 1.83953 74.3534 1.99112 74.3534 2.15786V6.11425C74.3534 6.44774 74.3443 6.69331 74.3261 6.85096L74.9965 6.81458V7.22386H72.8941V6.91462C73.0705 6.90856 73.2035 6.87673 73.2932 6.81912C73.3829 6.76152 73.4459 6.6827 73.4824 6.58265C73.5189 6.4826 73.5379 6.36361 73.5394 6.22567C73.5409 6.08772 73.5417 5.9369 73.5417 5.77318V2.03508L70.1078 6.3098C70.1047 6.42803 70.1009 6.53187 70.0964 6.6213C70.0918 6.71074 70.085 6.78729 70.0758 6.85096L70.7508 6.81458V7.22386H68.6484V6.91462C68.8248 6.90856 68.957 6.87673 69.0452 6.81912C69.1334 6.76152 69.1957 6.6827 69.2322 6.58265C69.2686 6.4826 69.2876 6.36361 69.2892 6.22567C69.2907 6.08772 69.2914 5.9369 69.2914 5.77318V1.74858C69.2914 1.62125 69.2937 1.50074 69.2983 1.38705C69.3028 1.27336 69.3112 1.16952 69.3234 1.07554L68.6484 1.11647V0.702637H70.7508V1.01187C70.5744 1.01794 70.4422 1.05053 70.354 1.10964C70.2658 1.16876 70.2035 1.24835 70.167 1.34839C70.1306 1.44844 70.1116 1.56668 70.11 1.7031C70.1085 1.83953 70.1078 1.99112 70.1078 2.15786V5.67768L73.5463 1.44389C73.5493 1.37416 73.5523 1.30898 73.5554 1.24835C73.5584 1.18771 73.563 1.13011 73.5691 1.07554L72.8941 1.11647V0.702637H74.9965V1.01187ZM81.6875 1.01187C81.5142 1.01794 81.3827 1.05053 81.293 1.10964C81.2033 1.16876 81.1402 1.24835 81.1037 1.34839C81.0673 1.44844 81.0483 1.56668 81.0467 1.7031C81.0452 1.83953 81.0445 1.99112 81.0445 2.15786V6.11425C81.0445 6.44774 81.0353 6.69331 81.0171 6.85096L81.6875 6.81458V7.22386H79.5851V6.91462C79.7615 6.90856 79.8945 6.87673 79.9842 6.81912C80.0739 6.76152 80.1369 6.6827 80.1734 6.58265C80.2099 6.4826 80.2289 6.36361 80.2304 6.22567C80.2319 6.08772 80.2327 5.9369 80.2327 5.77318V4.32705C80.0138 4.43316 79.7562 4.51805 79.4597 4.58172C79.1633 4.64538 78.8494 4.67722 78.518 4.67722C78.1805 4.67722 77.8894 4.63629 77.6447 4.55443C77.4 4.47258 77.1993 4.35282 77.0427 4.19517C76.8862 4.03752 76.7706 3.8435 76.6961 3.61308C76.6217 3.38267 76.5844 3.1174 76.5844 2.81726V2.03735C76.5844 1.83574 76.5859 1.67203 76.589 1.54621C76.592 1.42039 76.5958 1.32338 76.6004 1.25517C76.6049 1.18695 76.6103 1.12708 76.6163 1.07554L75.9414 1.11647V0.702637H78.0437V1.01187C77.8613 1.01794 77.7253 1.05659 77.6356 1.12783C77.5459 1.19908 77.4843 1.31353 77.4509 1.47118C77.4174 1.62883 77.4015 1.83422 77.403 2.08737C77.4045 2.34052 77.4038 2.65354 77.4007 3.02645C77.4038 3.1841 77.4326 3.33417 77.4874 3.47666C77.5421 3.61915 77.6287 3.74496 77.7473 3.85411C77.8659 3.96325 78.0164 4.04965 78.1988 4.11332C78.3812 4.17698 78.6016 4.2073 78.86 4.20427C79.1367 4.20124 79.3928 4.1694 79.6285 4.10877C79.8641 4.04814 80.0655 3.96931 80.2327 3.8723V1.74858C80.2327 1.48785 80.2418 1.26351 80.2601 1.07554L79.5851 1.11647V0.702637H81.6875V1.01187ZM84.3187 6.15063C84.3187 6.32344 84.3164 6.4682 84.3118 6.58492C84.3073 6.70165 84.2989 6.79942 84.2868 6.87824L86.0744 6.85096C86.2781 6.84793 86.4621 6.82291 86.6262 6.77592C86.7904 6.72893 86.931 6.65011 87.0481 6.53945C87.1651 6.42879 87.2556 6.28175 87.3194 6.09833C87.3833 5.91491 87.4152 5.68526 87.4152 5.40938H87.7344L87.6797 7.22386H82.8594V6.91462C83.0083 6.91159 83.1262 6.8881 83.2128 6.84414C83.2994 6.80018 83.3641 6.7403 83.4066 6.66451C83.4492 6.58871 83.4758 6.49852 83.4864 6.39393C83.4971 6.28933 83.5024 6.17337 83.5024 6.04604V1.74858C83.5024 1.62125 83.5047 1.50074 83.5092 1.38705C83.5138 1.27336 83.5221 1.16952 83.5343 1.07554L82.8594 1.11647V0.702637H87.3513L87.3969 2.33522H87.0914C87.0914 2.06842 87.0602 1.85014 86.9979 1.68037C86.9356 1.51059 86.8504 1.37719 86.7425 1.28018C86.6346 1.18316 86.5077 1.11722 86.3617 1.08236C86.2158 1.04749 86.0577 1.03006 85.8875 1.03006L85.0255 1.0437C84.8523 1.0528 84.7177 1.08009 84.622 1.12556C84.5262 1.17104 84.4555 1.23849 84.4099 1.32793C84.3643 1.41736 84.3377 1.53029 84.3301 1.66672C84.3225 1.80315 84.3187 1.96686 84.3187 2.15786V3.65856H86.0699L86.0015 2.85364H86.4165V4.81364H86.1109C86.1109 4.63174 86.0949 4.48698 86.063 4.37935C86.0311 4.27172 85.9809 4.18835 85.9125 4.12923C85.8441 4.07011 85.7575 4.03146 85.6526 4.01327C85.5477 3.99508 85.4208 3.98599 85.2718 3.98599H85.1396C85.094 3.98599 84.8203 3.9966 84.3187 4.01782V6.15063ZM92.0211 0.934731C91.6897 0.934731 91.3789 1.00522 91.0885 1.14619C90.7982 1.28717 90.5451 1.48726 90.3292 1.74647C90.1134 2.00569 89.9431 2.32022 89.8185 2.69009C89.6938 3.05997 89.6315 3.47227 89.6315 3.92703C89.6315 4.22111 89.6611 4.49775 89.7204 4.75697C89.7797 5.01618 89.8641 5.25568 89.9735 5.47548C90.083 5.69528 90.2137 5.89234 90.3657 6.06667C90.5177 6.24099 90.6864 6.38879 90.8719 6.51006C91.0574 6.63133 91.2565 6.72455 91.4693 6.78973C91.6821 6.85491 91.9041 6.88751 92.1351 6.88751C92.3388 6.88751 92.5417 6.86477 92.7439 6.81929C92.9461 6.77382 93.1407 6.7056 93.3277 6.61465C93.5146 6.5237 93.6902 6.41153 93.8544 6.27813C94.0185 6.14473 94.1645 5.99163 94.2922 5.81883L94.5339 6.01437C94.3332 6.29026 94.1181 6.51612 93.8886 6.69196C93.659 6.8678 93.428 7.0065 93.1954 7.10806C92.9628 7.20963 92.7348 7.27935 92.5113 7.31725C92.2879 7.35515 92.0804 7.3741 91.8889 7.3741C91.4207 7.3741 90.992 7.28845 90.6028 7.11716C90.2137 6.94587 89.8793 6.71167 89.5996 6.41456C89.3199 6.11745 89.1025 5.76805 88.9474 5.36634C88.7924 4.96464 88.7148 4.53186 88.7148 4.06801C88.7148 3.77696 88.7445 3.48744 88.8038 3.19942C88.8631 2.91141 88.9527 2.6378 89.0728 2.37859C89.1929 2.11937 89.3427 1.87835 89.522 1.65552C89.7014 1.43269 89.9112 1.23942 90.1514 1.07571C90.3915 0.911992 90.6621 0.783903 90.9631 0.691435C91.2641 0.598968 91.5955 0.552734 91.9573 0.552734C92.3099 0.552734 92.6398 0.599726 92.9469 0.693709C93.2539 0.787693 93.5519 0.930182 93.8407 1.12118L93.7951 0.620948H94.3013V2.78105H93.9638C93.9304 2.49 93.8612 2.23003 93.7563 2.00114C93.6514 1.77224 93.5161 1.57897 93.3505 1.42132C93.1848 1.26367 92.9894 1.14316 92.7644 1.05979C92.5395 0.976416 92.2917 0.934731 92.0211 0.934731ZM100.888 1.01187C100.69 1.02703 100.511 1.05356 100.35 1.09145C100.189 1.12935 100.035 1.19302 99.889 1.28245C99.7431 1.37189 99.5979 1.49467 99.4535 1.65081C99.3091 1.80694 99.1579 2.01234 98.9998 2.267L98.0877 3.72223C98.1759 3.7768 98.2549 3.83516 98.3248 3.89731C98.3948 3.95946 98.4601 4.02388 98.5209 4.09058C98.5817 4.15728 98.6395 4.22625 98.6942 4.29749C98.749 4.36874 98.8052 4.44074 98.863 4.5135L99.9073 5.90051C100.084 6.13699 100.236 6.32268 100.363 6.45759C100.491 6.5925 100.607 6.69407 100.71 6.76228C100.813 6.83049 100.909 6.87294 100.997 6.88961C101.085 6.90629 101.18 6.91462 101.28 6.91462V7.22386H100.14C100.094 7.22386 100.037 7.19885 99.9666 7.14882C99.8967 7.0988 99.8199 7.03134 99.7363 6.94646C99.6527 6.86157 99.5645 6.7638 99.4718 6.65314C99.379 6.54248 99.2871 6.42803 99.1959 6.3098L98.0786 4.80455C97.96 4.64993 97.8414 4.50289 97.7229 4.36343C97.6043 4.22397 97.4888 4.11938 97.3763 4.04965L96.9203 4.05875V6.11425C96.9203 6.28403 96.918 6.42955 96.9134 6.55082C96.9089 6.67209 96.9005 6.77213 96.8883 6.85096L97.5633 6.81458V7.22386H95.4609V6.91462C95.6373 6.90856 95.7695 6.87673 95.8577 6.81912C95.9459 6.76152 96.0082 6.6827 96.0447 6.58265C96.0811 6.4826 96.1001 6.36361 96.1017 6.22567C96.1032 6.08772 96.1039 5.9369 96.1039 5.77318V1.74858C96.1039 1.62125 96.1062 1.50074 96.1108 1.38705C96.1153 1.27336 96.1237 1.16952 96.1359 1.07554L95.4609 1.11647V0.702637H97.5633V1.01187C97.3869 1.01794 97.2547 1.05053 97.1665 1.10964C97.0783 1.16876 97.016 1.24835 96.9795 1.34839C96.9431 1.44844 96.9241 1.56668 96.9225 1.7031C96.921 1.83953 96.9203 1.99112 96.9203 2.15786V3.68585H97.618L98.7854 1.84863C98.825 1.78799 98.8698 1.72281 98.92 1.65308C98.9701 1.58335 99.0233 1.51362 99.0796 1.44389C99.1358 1.37416 99.1959 1.30671 99.2597 1.24152C99.3236 1.17634 99.3874 1.11798 99.4513 1.06644L98.8812 1.08463V0.702637H100.888V1.01187ZM102.652 6.20986C102.628 6.28262 102.606 6.3478 102.588 6.40541C102.57 6.46301 102.552 6.51606 102.533 6.56457C102.515 6.61308 102.497 6.66007 102.479 6.70555C102.46 6.75102 102.441 6.79953 102.419 6.85107L103.149 6.81469V7.22397H101.402V6.91473C101.542 6.91473 101.656 6.88669 101.744 6.8306C101.833 6.77452 101.907 6.69493 101.968 6.59186C102.029 6.48878 102.084 6.36599 102.134 6.2235C102.184 6.08101 102.241 5.92336 102.305 5.75055L104.23 0.525391H104.453L106.537 5.82786C106.565 5.89153 106.593 5.96808 106.622 6.05752C106.651 6.14695 106.678 6.23866 106.704 6.33264C106.73 6.42663 106.749 6.51909 106.763 6.61005C106.777 6.701 106.782 6.78134 106.779 6.85107L107.417 6.81469V7.22397H105.279V6.91473C105.452 6.9117 105.58 6.87987 105.662 6.81923C105.744 6.7586 105.795 6.68432 105.817 6.5964C105.838 6.50848 105.838 6.4145 105.817 6.31445C105.795 6.21441 105.768 6.12042 105.735 6.0325L105.406 5.15937L102.976 5.21394C102.909 5.40494 102.849 5.58002 102.798 5.73919C102.746 5.89835 102.697 6.05524 102.652 6.20986ZM103.783 2.94029C103.64 3.34048 103.515 3.69291 103.407 3.9976C103.299 4.30229 103.202 4.57439 103.117 4.81389H105.279L104.613 3.03124L104.193 1.88525H104.175L103.783 2.94029ZM113.213 1.01187C113.042 1.01794 112.913 1.04901 112.823 1.1051C112.733 1.16118 112.669 1.23849 112.631 1.33702C112.593 1.43555 112.574 1.55455 112.572 1.69401C112.57 1.83347 112.57 1.98657 112.57 2.15331V6.17792C112.57 6.30525 112.567 6.42576 112.563 6.53945C112.558 6.65314 112.55 6.75697 112.538 6.85096L113.213 6.81003V7.22386H111.11V6.91462C111.287 6.90856 111.419 6.87673 111.507 6.81912C111.595 6.76152 111.658 6.6827 111.694 6.58265C111.731 6.4826 111.75 6.36361 111.751 6.22567C111.753 6.08772 111.753 5.93538 111.753 5.76863V4.49531L110.923 4.50441C110.784 4.58323 110.663 4.67949 110.561 4.79318C110.459 4.90687 110.373 5.01677 110.303 5.12288L109.61 6.19156C109.543 6.29464 109.474 6.39923 109.403 6.50534C109.331 6.61145 109.258 6.71226 109.184 6.80775C109.109 6.90325 109.035 6.98738 108.96 7.06015C108.886 7.13291 108.814 7.18748 108.744 7.22386H107.645V6.91462C107.775 6.91462 107.889 6.89643 107.984 6.86005C108.08 6.82367 108.168 6.76834 108.249 6.69407C108.329 6.61979 108.409 6.52732 108.488 6.41666C108.567 6.30601 108.655 6.17792 108.753 6.03239L109.478 4.95462C109.536 4.86973 109.591 4.79394 109.644 4.72724C109.697 4.66054 109.753 4.60294 109.811 4.55443C109.868 4.50592 109.929 4.46575 109.991 4.43392C110.053 4.40209 110.124 4.37556 110.203 4.35434C109.978 4.3028 109.769 4.22549 109.576 4.12241C109.383 4.01933 109.216 3.89579 109.074 3.75179C108.933 3.60778 108.823 3.44482 108.744 3.26292C108.665 3.08102 108.625 2.88396 108.625 2.67174C108.625 1.359 109.321 0.702637 110.714 0.702637H113.213V1.01187ZM111.752 1.80342C111.752 1.63364 111.754 1.48964 111.759 1.3714C111.764 1.25316 111.772 1.15463 111.784 1.07581C111.769 1.06974 111.726 1.0652 111.656 1.06216C111.586 1.05913 111.509 1.05762 111.424 1.05762H111.023C110.804 1.05762 110.601 1.08869 110.416 1.15084C110.231 1.21299 110.07 1.30849 109.935 1.43734C109.8 1.56619 109.694 1.73141 109.618 1.93302C109.542 2.13463 109.504 2.3749 109.504 2.65381C109.504 2.863 109.544 3.05931 109.625 3.24273C109.705 3.42614 109.814 3.58607 109.951 3.72249C110.088 3.85892 110.248 3.96655 110.432 4.04537C110.616 4.1242 110.813 4.16361 111.023 4.16361C111.208 4.16361 111.368 4.16133 111.501 4.15679C111.635 4.15224 111.719 4.14542 111.752 4.13632V1.80342ZM122.388 1.01187C122.19 1.02703 122.011 1.05356 121.85 1.09145C121.689 1.12935 121.535 1.19302 121.389 1.28245C121.243 1.37189 121.098 1.49467 120.954 1.65081C120.809 1.80694 120.658 2.01234 120.5 2.267L119.588 3.72223C119.676 3.7768 119.755 3.83516 119.825 3.89731C119.895 3.95946 119.96 4.02388 120.021 4.09058C120.082 4.15728 120.14 4.22625 120.194 4.29749C120.249 4.36874 120.305 4.44074 120.363 4.5135L121.407 5.90051C121.584 6.13699 121.736 6.32268 121.863 6.45759C121.991 6.5925 122.107 6.69407 122.21 6.76228C122.313 6.83049 122.409 6.87294 122.497 6.88961C122.585 6.90629 122.68 6.91462 122.78 6.91462V7.22386H121.64C121.594 7.22386 121.537 7.19885 121.467 7.14882C121.397 7.0988 121.32 7.03134 121.236 6.94646C121.153 6.86157 121.065 6.7638 120.972 6.65314C120.879 6.54248 120.787 6.42803 120.696 6.3098L119.579 4.80455C119.46 4.64993 119.341 4.50289 119.223 4.36343C119.104 4.22397 118.989 4.11938 118.876 4.04965L118.42 4.05875V6.11425C118.42 6.28403 118.418 6.42955 118.413 6.55082C118.409 6.67209 118.4 6.77213 118.388 6.85096L119.063 6.81458V7.22386H116.961V6.91462C117.137 6.90856 117.27 6.87673 117.358 6.81912C117.446 6.76152 117.508 6.6827 117.545 6.58265C117.581 6.4826 117.6 6.36361 117.602 6.22567C117.603 6.08772 117.604 5.9369 117.604 5.77318V1.74858C117.604 1.62125 117.606 1.50074 117.611 1.38705C117.615 1.27336 117.624 1.16952 117.636 1.07554L116.961 1.11647V0.702637H119.063V1.01187C118.887 1.01794 118.755 1.05053 118.667 1.10964C118.578 1.16876 118.516 1.24835 118.48 1.34839C118.443 1.44844 118.424 1.56668 118.423 1.7031C118.421 1.83953 118.42 1.99112 118.42 2.15786V3.68585H119.118L120.285 1.84863C120.325 1.78799 120.37 1.72281 120.42 1.65308C120.47 1.58335 120.523 1.51362 120.58 1.44389C120.636 1.37416 120.696 1.30671 120.76 1.24152C120.824 1.17634 120.887 1.11798 120.951 1.06644L120.381 1.08463V0.702637H122.388V1.01187ZM128.979 1.01187C128.806 1.01794 128.674 1.05053 128.585 1.10964C128.495 1.16876 128.432 1.24835 128.396 1.34839C128.359 1.44844 128.34 1.56668 128.339 1.7031C128.337 1.83953 128.336 1.99112 128.336 2.15786V6.11425C128.336 6.44774 128.327 6.69331 128.309 6.85096L128.979 6.81458V7.22386H126.877V6.91462C127.053 6.90856 127.186 6.87673 127.276 6.81912C127.366 6.76152 127.429 6.6827 127.465 6.58265C127.502 6.4826 127.521 6.36361 127.522 6.22567C127.524 6.08772 127.525 5.9369 127.525 5.77318V1.07554H126.238C126.047 1.08766 125.909 1.14148 125.826 1.23698C125.742 1.33248 125.694 1.4545 125.682 1.60306V1.8077C125.682 2.25943 125.668 2.71115 125.641 3.16287C125.614 3.6146 125.57 4.04662 125.511 4.45893C125.452 4.87125 125.374 5.25476 125.279 5.60947C125.183 5.96418 125.068 6.27266 124.934 6.5349C124.8 6.79715 124.647 7.00254 124.474 7.1511C124.3 7.29965 124.104 7.37393 123.885 7.37393C123.773 7.37393 123.665 7.35953 123.562 7.33073C123.458 7.30192 123.366 7.26024 123.286 7.20567C123.205 7.1511 123.141 7.0844 123.094 7.00557C123.047 6.92675 123.023 6.83883 123.023 6.74182C123.023 6.60539 123.066 6.49094 123.151 6.39847C123.236 6.30601 123.347 6.25674 123.484 6.25068C123.56 6.24765 123.627 6.25901 123.685 6.28478C123.742 6.31055 123.79 6.3439 123.828 6.38483C123.866 6.42576 123.895 6.47199 123.915 6.52353C123.935 6.57507 123.945 6.62358 123.945 6.66905C123.945 6.72666 123.937 6.77289 123.922 6.80776C123.907 6.84262 123.881 6.87976 123.844 6.91917C123.896 6.96768 123.949 6.99193 124.004 6.99193C124.135 6.99193 124.272 6.90174 124.417 6.72135C124.561 6.54096 124.694 6.26432 124.816 5.89142C124.937 5.51852 125.038 5.04785 125.117 4.4794C125.196 3.91095 125.235 3.23867 125.235 2.46255V1.07554H125.039L124.364 1.11647V0.702637H128.979V1.01187ZM136.489 1.01187C136.315 1.01794 136.184 1.05053 136.094 1.10964C136.004 1.16876 135.941 1.24835 135.905 1.34839C135.868 1.44844 135.849 1.56668 135.848 1.7031C135.846 1.83953 135.846 1.99112 135.846 2.15786V6.11425C135.846 6.44774 135.837 6.69331 135.818 6.85096L136.489 6.81458V7.22386H134.386V6.91462C134.563 6.90856 134.696 6.87673 134.785 6.81912C134.875 6.76152 134.938 6.6827 134.975 6.58265C135.011 6.4826 135.03 6.36361 135.032 6.22567C135.033 6.08772 135.034 5.9369 135.034 5.77318V2.03508L131.6 6.3098C131.597 6.42803 131.593 6.53187 131.589 6.6213C131.584 6.71074 131.577 6.78729 131.568 6.85096L132.243 6.81458V7.22386H130.141V6.91462C130.317 6.90856 130.449 6.87673 130.537 6.81912C130.626 6.76152 130.688 6.6827 130.724 6.58265C130.761 6.4826 130.78 6.36361 130.781 6.22567C130.783 6.08772 130.784 5.9369 130.784 5.77318V1.74858C130.784 1.62125 130.786 1.50074 130.79 1.38705C130.795 1.27336 130.803 1.16952 130.816 1.07554L130.141 1.11647V0.702637H132.243V1.01187C132.067 1.01794 131.934 1.05053 131.846 1.10964C131.758 1.16876 131.696 1.24835 131.659 1.34839C131.623 1.44844 131.604 1.56668 131.602 1.7031C131.601 1.83953 131.6 1.99112 131.6 2.15786V5.67768L135.038 1.44389C135.041 1.37416 135.045 1.30898 135.048 1.24835C135.051 1.18771 135.055 1.13011 135.061 1.07554L134.386 1.11647V0.702637H136.489V1.01187ZM142.458 4.07239L139.116 4.11332V6.11425C139.116 6.28403 139.113 6.42955 139.109 6.55082C139.104 6.67209 139.096 6.77213 139.084 6.85096L139.759 6.81458V7.22386H137.656V6.91462C137.833 6.90856 137.965 6.87673 138.053 6.81912C138.141 6.76152 138.203 6.6827 138.24 6.58265C138.276 6.4826 138.295 6.36361 138.297 6.22567C138.299 6.08772 138.299 5.9369 138.299 5.77318V1.74858C138.299 1.62125 138.302 1.50074 138.306 1.38705C138.311 1.27336 138.319 1.16952 138.331 1.07554L137.656 1.11647V0.702637H139.759V1.01187C139.582 1.01794 139.45 1.05053 139.362 1.10964C139.274 1.16876 139.211 1.24835 139.175 1.34839C139.138 1.44844 139.119 1.56668 139.118 1.7031C139.116 1.83953 139.116 1.99112 139.116 2.15786V3.70404H142.458V1.74858C142.458 1.48785 142.467 1.26351 142.486 1.07554L141.811 1.11647V0.702637H143.913V1.01187C143.74 1.01794 143.608 1.05053 143.519 1.10964C143.429 1.16876 143.366 1.24835 143.329 1.34839C143.293 1.44844 143.274 1.56668 143.272 1.7031C143.271 1.83953 143.27 1.99112 143.27 2.15786V6.11425C143.27 6.44774 143.261 6.69331 143.243 6.85096L143.913 6.81458V7.22386H141.811V6.91462C141.987 6.90856 142.12 6.87673 142.21 6.81912C142.299 6.76152 142.363 6.6827 142.399 6.58265C142.436 6.4826 142.455 6.36361 142.456 6.22567C142.458 6.08772 142.458 5.9369 142.458 5.77318V4.07239ZM151.418 1.01187C151.245 1.01794 151.114 1.05053 151.024 1.10964C150.934 1.16876 150.871 1.24835 150.835 1.34839C150.798 1.44844 150.779 1.56668 150.778 1.7031C150.776 1.83953 150.775 1.99112 150.775 2.15786V6.11425C150.775 6.44774 150.766 6.69331 150.748 6.85096L151.418 6.81458V7.22386H149.316V6.91462C149.492 6.90856 149.625 6.87673 149.715 6.81912C149.805 6.76152 149.868 6.6827 149.904 6.58265C149.941 6.4826 149.96 6.36361 149.961 6.22567C149.963 6.08772 149.964 5.9369 149.964 5.77318V2.03508L146.53 6.3098C146.527 6.42803 146.523 6.53187 146.518 6.6213C146.514 6.71074 146.507 6.78729 146.498 6.85096L147.173 6.81458V7.22386H145.07V6.91462C145.247 6.90856 145.379 6.87673 145.467 6.81912C145.555 6.76152 145.618 6.6827 145.654 6.58265C145.691 6.4826 145.71 6.36361 145.711 6.22567C145.713 6.08772 145.713 5.9369 145.713 5.77318V1.74858C145.713 1.62125 145.716 1.50074 145.72 1.38705C145.725 1.27336 145.733 1.16952 145.745 1.07554L145.07 1.11647V0.702637H147.173V1.01187C146.996 1.01794 146.864 1.05053 146.776 1.10964C146.688 1.16876 146.625 1.24835 146.589 1.34839C146.552 1.44844 146.533 1.56668 146.532 1.7031C146.53 1.83953 146.53 1.99112 146.53 2.15786V5.67768L149.968 1.44389C149.971 1.37416 149.974 1.30898 149.977 1.24835C149.98 1.18771 149.985 1.13011 149.991 1.07554L149.316 1.11647V0.702637H151.418V1.01187ZM158.009 1.01187C157.811 1.02703 157.632 1.05356 157.471 1.09145C157.31 1.12935 157.156 1.19302 157.01 1.28245C156.864 1.37189 156.719 1.49467 156.575 1.65081C156.43 1.80694 156.279 2.01234 156.121 2.267L155.209 3.72223C155.297 3.7768 155.376 3.83516 155.446 3.89731C155.516 3.95946 155.581 4.02388 155.642 4.09058C155.703 4.15728 155.761 4.22625 155.815 4.29749C155.87 4.36874 155.926 4.44074 155.984 4.5135L157.028 5.90051C157.205 6.13699 157.357 6.32268 157.484 6.45759C157.612 6.5925 157.728 6.69407 157.831 6.76228C157.934 6.83049 158.03 6.87294 158.118 6.88961C158.206 6.90629 158.301 6.91462 158.401 6.91462V7.22386H157.261C157.215 7.22386 157.158 7.19885 157.088 7.14882C157.018 7.0988 156.941 7.03134 156.857 6.94646C156.774 6.86157 156.686 6.7638 156.593 6.65314C156.5 6.54248 156.408 6.42803 156.317 6.3098L155.2 4.80455C155.081 4.64993 154.963 4.50289 154.844 4.36343C154.725 4.22397 154.61 4.11938 154.497 4.04965L154.041 4.05875V6.11425C154.041 6.28403 154.039 6.42955 154.035 6.55082C154.03 6.67209 154.022 6.77213 154.009 6.85096L154.684 6.81458V7.22386H152.582V6.91462C152.758 6.90856 152.891 6.87673 152.979 6.81912C153.067 6.76152 153.129 6.6827 153.166 6.58265C153.202 6.4826 153.221 6.36361 153.223 6.22567C153.224 6.08772 153.225 5.9369 153.225 5.77318V1.74858C153.225 1.62125 153.227 1.50074 153.232 1.38705C153.236 1.27336 153.245 1.16952 153.257 1.07554L152.582 1.11647V0.702637H154.684V1.01187C154.508 1.01794 154.376 1.05053 154.288 1.10964C154.199 1.16876 154.137 1.24835 154.101 1.34839C154.064 1.44844 154.045 1.56668 154.044 1.7031C154.042 1.83953 154.041 1.99112 154.041 2.15786V3.68585H154.739L155.907 1.84863C155.946 1.78799 155.991 1.72281 156.041 1.65308C156.091 1.58335 156.144 1.51362 156.201 1.44389C156.257 1.37416 156.317 1.30671 156.381 1.24152C156.445 1.17634 156.508 1.11798 156.572 1.06644L156.002 1.08463V0.702637H158.009V1.01187ZM159.773 6.20986C159.749 6.28262 159.727 6.3478 159.709 6.40541C159.691 6.46301 159.673 6.51606 159.654 6.56457C159.636 6.61308 159.618 6.66007 159.6 6.70555C159.581 6.75102 159.562 6.79953 159.54 6.85107L160.27 6.81469V7.22397H158.523V6.91473C158.663 6.91473 158.777 6.88669 158.865 6.8306C158.954 6.77452 159.028 6.69493 159.089 6.59186C159.15 6.48878 159.205 6.36599 159.255 6.2235C159.306 6.08101 159.363 5.92336 159.426 5.75055L161.351 0.525391H161.574L163.658 5.82786C163.686 5.89153 163.714 5.96808 163.743 6.05752C163.772 6.14695 163.799 6.23866 163.825 6.33264C163.851 6.42663 163.87 6.51909 163.884 6.61005C163.898 6.701 163.903 6.78134 163.9 6.85107L164.539 6.81469V7.22397H162.4V6.91473C162.573 6.9117 162.701 6.87987 162.783 6.81923C162.865 6.7586 162.917 6.68432 162.938 6.5964C162.959 6.50848 162.959 6.4145 162.938 6.31445C162.917 6.21441 162.889 6.12042 162.856 6.0325L162.527 5.15937L160.097 5.21394C160.03 5.40494 159.971 5.58002 159.919 5.73919C159.867 5.89835 159.819 6.05524 159.773 6.20986ZM160.904 2.94029C160.761 3.34048 160.636 3.69291 160.528 3.9976C160.42 4.30229 160.323 4.57439 160.238 4.81389H162.4L161.734 3.03124L161.315 1.88525H161.296L160.904 2.94029Z" fill="#986B4D"/>
</svg>
