<svg width="64" height="43" viewBox="0 0 64 43" fill="none" xmlns="http://www.w3.org/2000/svg">
<path opacity="0.602865" d="M63.5479 40.5488C63.5479 41.6835 62.6317 42.6032 61.5009 42.6032H2.09727C0.967443 42.6032 0.0507812 41.684 0.0507812 40.5488V2.07343C0.0507812 0.938737 0.966939 0.019043 2.09727 0.019043H61.5009C62.6312 0.019043 63.5479 0.938737 63.5479 2.07343V40.5488Z" fill="white"/>
<path fill-rule="evenodd" clip-rule="evenodd" d="M39.7508 12.6201C40.2734 12.7188 40.7975 12.8118 41.3191 12.9166C41.7227 12.9975 42.2327 13.0081 42.4681 13.2894C42.7195 13.5899 42.4282 14.0674 42.3738 14.4661C42.2942 15.0524 42.1647 15.6326 42.0866 16.22C42.0488 16.4987 41.9954 16.5549 41.7127 16.4335C40.4861 15.9078 39.2056 15.6959 37.8742 15.8684C37.4362 15.925 37.0185 16.0475 36.6622 16.3217C36.0852 16.7653 36.0545 17.3739 36.5886 17.8692C37.0472 18.2946 37.6126 18.5526 38.1644 18.8258C38.9133 19.1951 39.6717 19.5462 40.3374 20.0627C42.2257 21.5272 42.5457 23.8902 41.1089 25.814C40.1993 27.0307 38.9244 27.6544 37.4952 28.0131C36.9963 28.1386 36.4883 28.2144 35.9763 28.2635C35.8927 28.2726 35.7909 28.2387 35.738 28.344C35.6866 28.344 35.6352 28.344 35.5833 28.344C35.352 28.2838 35.1202 28.2838 34.8893 28.344C34.8122 28.344 34.7341 28.344 34.6575 28.344C34.4519 28.2807 34.2458 28.2807 34.0397 28.344C33.9883 28.344 33.9369 28.344 33.885 28.344C33.2843 28.1659 32.6519 28.1785 32.0431 28.0399C31.5165 27.9205 30.9919 27.7981 30.4824 27.6175C30.2929 27.5512 30.2194 27.447 30.2546 27.2437C30.4209 26.2906 30.5817 25.337 30.7374 24.3834C30.7888 24.0687 30.9627 24.1831 31.1244 24.259C32.2795 24.8043 33.4894 25.1124 34.7669 25.1513C35.4543 25.1726 36.131 25.1276 36.767 24.8367C37.8606 24.3364 37.9729 23.3271 37.0175 22.6067C36.4888 22.2086 35.8821 21.9526 35.2925 21.6673C34.654 21.3587 34.0473 21.0006 33.4824 20.5675C31.3265 18.9189 31.6798 16.5215 32.8539 15.0322C33.7026 13.9556 34.8591 13.3653 36.1472 13C36.6556 12.8559 37.1747 12.7704 37.6983 12.7056C37.7925 12.6935 37.9105 12.7365 37.9755 12.6201C38.0002 12.6201 38.0264 12.6201 38.0521 12.6201C38.3091 12.6834 38.5666 12.6834 38.8231 12.6201C38.875 12.6201 38.9264 12.6201 38.9778 12.6201C39.2091 12.6808 39.4409 12.6808 39.6722 12.6201C39.6989 12.6201 39.7246 12.6201 39.7508 12.6201Z" fill="white"/>
<path fill-rule="evenodd" clip-rule="evenodd" d="M5.56641 12.93C7.84974 12.9295 10.1331 12.9107 12.4159 12.934C13.4278 12.9441 13.9711 13.4171 14.1747 14.3813C14.6237 16.5071 15.0591 18.6348 15.4985 20.7625C15.5111 20.8243 15.5045 20.8905 15.5076 20.9543C15.243 20.9482 15.1891 20.7205 15.1044 20.5445C14.7053 19.7209 14.2351 18.9424 13.6556 18.2346C12.7712 17.1546 11.7351 16.2445 10.5508 15.5095C10.2969 15.3511 10.0761 15.1675 9.90984 14.9196C8.54921 14.1319 7.09132 13.6013 5.56691 13.2401C5.56641 13.1364 5.56641 13.0337 5.56641 12.93Z" fill="white"/>
<path fill-rule="evenodd" clip-rule="evenodd" d="M38.8218 12.6201C38.5653 12.739 38.3073 12.739 38.0508 12.6201C38.3073 12.6201 38.5653 12.6201 38.8218 12.6201Z" fill="white"/>
<path fill-rule="evenodd" clip-rule="evenodd" d="M39.671 12.6201C39.4397 12.7395 39.2079 12.7395 38.9766 12.6201C39.2079 12.6201 39.4397 12.6201 39.671 12.6201Z" fill="white"/>
<path fill-rule="evenodd" clip-rule="evenodd" d="M34.8867 28.3443C35.1175 28.2244 35.3493 28.2244 35.5806 28.3443C35.3493 28.3443 35.1175 28.3443 34.8867 28.3443Z" fill="white"/>
<path fill-rule="evenodd" clip-rule="evenodd" d="M34.0391 28.3447C34.2447 28.2289 34.4508 28.2289 34.6569 28.3447C34.4508 28.3447 34.2447 28.3447 34.0391 28.3447Z" fill="white"/>
<path fill-rule="evenodd" clip-rule="evenodd" d="M9.91016 14.919C12.3381 16.2596 14.2097 18.1314 15.3723 20.681C15.4142 20.7736 15.463 20.8632 15.5084 20.9537C15.6722 21.6807 15.8354 22.4076 16.0058 23.1629C16.1408 23.045 16.1615 22.8892 16.2134 22.7572C17.4516 19.5883 18.6892 16.42 19.9163 13.2476C20.0101 13.0063 20.1214 12.9087 20.388 12.9122C21.6091 12.9264 22.8306 12.9248 24.0511 12.9132C24.3419 12.9107 24.4044 12.9673 24.2819 13.2522C22.2012 18.094 20.1265 22.9388 18.0568 27.7856C17.9671 27.9961 17.8472 28.0725 17.6224 28.0705C16.3752 28.0619 15.1284 28.0598 13.8817 28.0725C13.6227 28.0755 13.5274 27.9668 13.4634 27.7351C12.2822 23.4629 11.0954 19.1912 9.91016 14.919Z" fill="white"/>
<path fill-rule="evenodd" clip-rule="evenodd" d="M25.5909 28.0997C25.025 28.0997 24.4586 28.0875 23.8936 28.1047C23.6024 28.1144 23.5076 28.037 23.561 27.7299C24.0055 25.1646 24.4369 22.5962 24.8733 20.0278C25.2518 17.8035 25.6393 15.5801 26.0031 13.3537C26.057 13.0239 26.1593 12.9015 26.5086 12.9096C27.6137 12.9333 28.7199 12.9252 29.8255 12.9131C30.1072 12.9101 30.2055 12.9622 30.151 13.2804C29.3266 18.0847 28.5127 22.8901 27.7059 27.697C27.6535 28.0096 27.5401 28.128 27.2106 28.1088C26.6724 28.0769 26.1311 28.0997 25.5909 28.0997Z" fill="white"/>
<path fill-rule="evenodd" clip-rule="evenodd" d="M56.2066 25.9377C55.5076 22.7648 54.8026 19.5924 54.1122 16.4175C53.89 15.3966 53.6693 14.3757 53.4299 13.3589C53.3049 12.8297 53.2253 12.7751 52.6967 12.7751C51.7326 12.7751 50.7681 12.7883 49.8046 12.7711C48.7619 12.7523 48.0287 13.2061 47.6145 14.1607C46.9276 15.7451 46.2206 17.322 45.5292 18.9039C44.5949 21.0412 43.649 23.1725 42.7147 25.3104C42.368 26.1011 41.9835 26.8761 41.6907 27.6885C41.5541 28.0674 41.6751 28.2258 42.0727 28.2268C43.2942 28.2298 44.5153 28.2207 45.7368 28.2329C46.0271 28.2364 46.1853 28.116 46.2936 27.8605C46.4922 27.3976 46.6696 26.9272 46.8324 26.4521C46.9498 26.1066 47.1569 25.964 47.5177 25.9655C48.8416 25.9736 50.1654 25.9645 51.4892 25.9705C51.9544 25.9731 52.033 26.0454 52.1343 26.5098C52.23 26.9515 52.3253 27.3926 52.4316 27.8307C52.4996 28.1119 52.6387 28.2374 52.9411 28.2329C53.9953 28.2202 55.0495 28.2278 56.1033 28.2283C56.2454 28.2283 56.389 28.242 56.4918 28.1119C56.4918 28.0603 56.4918 28.0087 56.4918 27.9571C56.3658 27.2884 56.3532 26.6064 56.2066 25.9377ZM51.1482 22.7074C50.2361 22.6928 49.325 22.6928 48.4133 22.7074C48.1236 22.7115 48.0989 22.6224 48.1951 22.3776C48.6683 21.1807 49.1299 19.9797 49.5946 18.7793C49.7961 18.2562 49.9942 17.7321 50.1937 17.2085C50.2285 17.2141 50.2638 17.2191 50.2986 17.2242C50.5863 18.5435 50.8756 19.8624 51.1618 21.1817C51.247 21.5717 51.312 21.9668 51.4178 22.3508C51.4934 22.6224 51.4435 22.712 51.1482 22.7074Z" fill="white"/>
</svg>
