<svg width="64" height="43" viewBox="0 0 64 43" fill="none" xmlns="http://www.w3.org/2000/svg">
<path opacity="0.597203" d="M63.5473 40.8023C63.5473 41.938 62.6332 42.8567 61.5009 42.8567H2.09727C0.967443 42.8567 0.0507812 41.9385 0.0507812 40.8023V2.32587C0.0507812 1.19168 0.967443 0.271484 2.09727 0.271484H61.5009C62.6327 0.271484 63.5473 1.19168 63.5473 2.32587V40.8023Z" fill="white"/>
<path fill-rule="evenodd" clip-rule="evenodd" d="M32.9586 34.6361C31.7048 35.7101 30.3578 36.644 28.856 37.3401C27.7207 37.8692 26.5329 38.2193 25.3159 38.4915C23.8066 38.8299 22.2701 38.8066 20.7487 38.7287C19.3165 38.6549 17.9236 38.2931 16.5706 37.7878C15.3304 37.3208 14.1718 36.7097 13.0788 35.9666C12.0694 35.2781 11.1426 34.4925 10.3212 33.59C9.39298 32.5666 8.6023 31.4425 7.93963 30.2248C7.30618 29.0613 6.85666 27.8285 6.52507 26.5521C6.33358 25.811 6.21314 25.0522 6.13603 24.2863C6.05238 23.4845 6.01005 22.6831 6.05087 21.8818C6.11285 20.6212 6.30838 19.3782 6.66315 18.1626C6.96904 17.1119 7.3606 16.095 7.87613 15.1298C8.41282 14.1282 9.04073 13.1862 9.76539 12.307C10.9456 10.8753 12.3329 9.68853 13.9123 8.7395C15.4372 7.82132 17.0765 7.1657 18.8282 6.81158C19.6053 6.65577 20.3838 6.54903 21.1765 6.49085C21.7344 6.4519 22.2907 6.43622 22.8431 6.46151C23.6181 6.50046 24.3912 6.57635 25.1546 6.73013C26.3016 6.95778 27.4233 7.27699 28.4932 7.74746C29.5011 8.19062 30.4717 8.71218 31.3692 9.36022C31.9175 9.75733 32.4385 10.1868 32.9581 10.6189C33.4015 10.8212 33.6984 11.1945 33.9927 11.5583C34.1207 11.7176 34.0335 11.8365 33.7916 11.8441C33.3381 11.8618 32.8805 11.881 32.4295 11.8421C31.9779 11.8011 31.6504 11.9412 31.418 12.3247C31.3677 12.4061 31.2941 12.4684 31.224 12.5675C31.3208 12.6065 31.406 12.5928 31.4876 12.5928C32.4839 12.5928 33.4797 12.6009 34.4759 12.5872C34.7803 12.5832 34.995 12.6864 35.1563 12.9393C35.2782 13.1321 35.4314 13.3051 35.5438 13.5014C35.6567 13.6941 35.6138 13.77 35.3926 13.7953C35.2979 13.8054 35.2006 13.7993 35.1059 13.7993C33.6893 13.7993 32.2752 13.7993 30.8607 13.7993C30.2812 13.7993 30.1149 13.9314 29.9556 14.5091C30.0176 14.5637 30.0912 14.544 30.1592 14.544C32.0505 14.544 33.9398 14.548 35.831 14.542C36.0946 14.505 36.2614 14.6219 36.3733 14.8592C36.47 15.0635 36.5829 15.2618 36.6721 15.4718C36.7421 15.6311 36.6912 15.7247 36.5169 15.7419C36.401 15.7556 36.2881 15.752 36.1757 15.752C34.0496 15.752 31.926 15.7657 29.8024 15.7419C29.3877 15.7379 29.1357 15.8527 29.0329 16.2594C29.0158 16.3257 28.9729 16.3859 28.9573 16.4537C28.9573 16.483 28.9674 16.5083 28.9921 16.5276C29.0949 16.5589 29.2017 16.5448 29.3061 16.5448C31.6584 16.5448 34.0108 16.5448 36.3612 16.5468C36.5396 16.5468 36.7139 16.5276 36.8883 16.5392C37.0042 16.5488 37.1246 16.5589 37.1906 16.6636C37.365 16.9242 37.4426 17.2221 37.4965 17.5257C37.5162 17.6405 37.423 17.6714 37.3343 17.6891C37.2138 17.7123 37.0899 17.7068 36.9659 17.7068C34.292 17.7068 31.6141 17.7068 28.9382 17.7068C28.4942 17.7068 28.3163 17.8798 28.2906 18.3234C28.2831 18.4266 28.3254 18.4712 28.4206 18.4793C28.5154 18.4894 28.6126 18.4853 28.7094 18.4853C31.4982 18.4853 34.2885 18.4853 37.0788 18.4853C37.1831 18.4853 37.2879 18.4853 37.3927 18.4873C37.7722 18.4949 37.8382 18.5496 37.9274 18.9249C38.0751 19.5745 38.0554 19.6038 37.4003 19.6038C34.4205 19.6018 31.4377 19.5861 28.4559 19.5922C28.3511 19.5922 28.2463 19.5957 28.142 19.5841C27.7081 19.5021 27.2717 19.5527 26.8358 19.5451C26.6518 19.5411 26.607 19.6635 26.5823 19.8173C26.4019 20.8893 26.1968 21.9572 26.0143 23.0292C25.8707 23.8674 25.7024 24.7001 25.5709 25.5424C25.4741 26.1687 25.6581 26.4509 26.2819 26.5617C26.7491 26.6437 27.2198 26.6498 27.6869 26.5344C27.9369 26.4722 28.0845 26.3341 28.1072 26.0695C28.1228 25.9117 28.2372 25.7371 28.1651 25.6087C28.0719 25.4397 27.8824 25.595 27.7348 25.5834C27.5836 25.5697 27.4405 25.5404 27.3029 25.4822C27.1517 25.4159 27.059 25.2935 27.0822 25.1301C27.1542 24.6358 27.2142 24.1401 27.2878 23.6458C27.2974 23.5856 27.3205 23.5275 27.3866 23.5022C27.4178 23.4981 27.4445 23.5042 27.4697 23.5214C27.4989 23.9438 27.7605 24.0273 28.1208 23.9782C28.1964 23.9671 28.276 23.9822 28.3455 24.0252C28.4655 24.1927 28.4347 24.3966 28.4655 24.5837C28.6187 25.5232 29.1398 26.1419 30.0448 26.4282C30.8567 26.6867 31.6841 26.6594 32.5116 26.5309C32.8664 26.4767 33.1007 26.3058 33.1219 25.9031C33.1335 25.6694 33.2015 25.4382 33.2267 25.2085C33.1491 25.1463 33.1007 25.2085 33.0543 25.2318C32.374 25.5763 31.6589 25.6213 30.9302 25.4635C30.4651 25.3623 30.13 25.0739 29.9617 24.6191C29.8276 24.2534 29.946 24.0859 30.3336 24.0839C31.2694 24.0799 32.2052 24.0758 33.1415 24.0859C33.3663 24.09 33.4726 24.0298 33.4938 23.7865C33.5306 23.3777 33.6142 22.9791 33.5885 22.5587C33.5225 21.4812 32.6119 20.8468 31.6937 20.8063C31.1762 20.783 30.6611 20.8083 30.1708 21.0066C29.3474 21.339 28.8611 21.9693 28.6051 22.804C28.5627 22.9421 28.5627 23.104 28.4211 23.1971C28.1752 23.2669 27.9253 23.2356 27.6768 23.2265C27.4889 23.2204 27.4349 23.0919 27.4349 22.9265C27.4173 22.6776 27.4853 22.4403 27.5357 22.201C27.567 22.0548 27.6521 21.9987 27.7993 22.0123C27.9736 22.03 28.148 22.024 28.3224 22.0225C28.468 22.0225 28.5491 21.9501 28.5743 21.8085C28.6111 21.5849 28.6479 21.3592 28.6867 21.1356C28.7139 20.9702 28.6363 20.912 28.4831 20.9141C28.3783 20.9161 28.274 20.9181 28.1692 20.912C28.0588 20.9039 27.9192 20.9297 27.8668 20.8088C27.8089 20.6743 27.8356 20.5347 27.958 20.4274C28.0739 20.3748 28.1964 20.3829 28.3183 20.3829C31.4513 20.3829 34.5828 20.3829 37.7183 20.3829C38.1255 20.3829 38.1753 20.4198 38.2303 20.7077C38.1915 20.9469 38.0363 21.1356 37.9435 21.3517C37.7344 21.8459 37.5948 22.3573 37.4935 22.8825C37.4703 23.0008 37.4623 23.1293 37.3383 23.1996C36.8112 23.2654 36.2881 23.2502 35.761 23.2093C35.6058 23.1354 35.6718 23.0226 35.7227 22.9234C35.9086 22.5718 36.2221 22.3477 36.598 22.3245C37.0591 22.2966 37.2728 22.1009 37.3267 21.6532C37.3539 21.4473 37.4779 21.2641 37.5862 21.0815C37.7026 20.8771 37.687 20.8539 37.4472 20.8539C36.9548 20.8539 36.5441 21.0269 36.2186 21.4043C36.1485 21.4882 36.0981 21.6339 35.9353 21.5601C35.8925 21.4943 35.8925 21.422 35.9006 21.3481C35.9046 21.3056 35.9157 21.2626 35.9238 21.2196C35.9626 20.9414 35.9429 20.9181 35.6607 20.9141C35.3971 20.912 35.1371 20.912 34.8735 20.9141C34.4875 20.9141 34.4916 20.9201 34.4205 21.2915C34.1917 22.4894 34.0466 23.6995 33.8309 24.8979C33.7437 25.3724 33.6525 25.8469 33.5734 26.3214C33.5306 26.5784 33.5462 26.6037 33.7961 26.6073C34.102 26.6133 34.4064 26.5992 34.7123 26.6113C34.9103 26.6194 34.997 26.5354 35.0222 26.3467C35.0398 26.2182 35.059 26.0806 35.1946 26.0083C35.2762 25.9734 35.3654 25.9714 35.4506 25.9714C36.1596 25.9693 36.8686 25.9658 37.5746 25.9714C37.9269 25.9754 37.9778 26.0417 37.9037 26.3821C37.7369 27.1369 37.7369 27.1369 36.9583 27.1369C34.2592 27.1369 31.5597 27.1369 28.8586 27.1369C28.7885 27.1369 28.719 27.1369 28.6489 27.1369C28.3914 27.145 28.3677 27.1718 28.4418 27.4131C28.4861 27.5573 28.5194 27.705 28.591 27.8371C28.6066 27.8608 28.6278 27.8841 28.655 27.9033C28.7653 27.9423 28.8797 27.9271 28.9941 27.9271C31.4589 27.9312 33.9256 27.9271 36.3924 27.9312C36.6363 27.9312 36.8807 27.9033 37.1246 27.9271C37.3454 27.9544 37.3998 28.0359 37.3378 28.2499C37.2798 28.4446 37.1906 28.6232 37.1055 28.8063C37.0354 28.9465 36.9236 29.0168 36.7724 29.0279C36.6484 29.036 36.5244 29.036 36.4045 29.036C34.0945 29.036 31.7864 29.032 29.4789 29.036C29.0601 29.036 29.0642 29.0517 29.231 29.4448C29.3529 29.7326 29.5313 29.8262 29.8357 29.8221C31.8918 29.8105 33.9458 29.8141 36.0014 29.8181C36.5829 29.8181 36.5869 29.8571 36.3697 30.3897C36.1757 30.8572 35.893 31.0009 35.385 30.9892C33.6898 30.9503 31.9925 30.974 30.2948 30.974C30.2348 30.974 30.1728 30.97 30.1164 30.9973C30.1028 31.0206 30.0967 31.0444 30.1028 31.0712C30.6102 31.8958 30.4147 31.7673 31.2981 31.7713C32.5302 31.7794 33.7654 31.7713 34.9975 31.7754C35.1255 31.7754 35.2979 31.7288 35.3639 31.8533C35.4359 31.9929 35.2918 32.1097 35.2107 32.219C34.5127 33.1291 34.7556 32.9662 33.7105 32.9773C33.081 32.9854 32.4511 32.9773 31.8212 32.9814C31.73 32.9814 31.6292 32.95 31.5209 33.036C31.7008 33.2379 31.86 33.4519 32.056 33.6385C32.1452 33.724 32.2632 33.7205 32.3775 33.7205C32.7459 33.724 33.1123 33.7205 33.4802 33.724C33.5809 33.7281 33.7105 33.7088 33.7513 33.8292C33.7901 33.9421 33.7084 34.0392 33.6273 34.1014C33.4061 34.2785 33.2337 34.5233 32.9586 34.6361Z" fill="#E6E6E6"/>
<path fill-rule="evenodd" clip-rule="evenodd" d="M32.9567 34.636C33.0998 34.457 33.2611 34.3057 33.445 34.1651C33.5534 34.0836 33.691 33.9941 33.7066 33.7993C33.2823 33.7993 32.864 33.776 32.4513 33.8074C32.1666 33.8307 31.9786 33.7255 31.8158 33.5155C31.7034 33.3718 31.5774 33.2393 31.4555 33.1032C31.4091 33.0491 31.3431 32.9904 31.3739 32.9241C31.4066 32.8503 31.4978 32.8892 31.5638 32.8892C32.4901 32.8852 33.4143 32.8852 34.3405 32.8933C34.5265 32.8933 34.6464 32.8351 34.7533 32.6793C34.9392 32.4112 35.1504 32.1582 35.3595 31.8891C35.2723 31.8269 35.1927 31.8507 35.1211 31.8507C33.6718 31.8466 32.2225 31.8426 30.7727 31.8507C30.5771 31.8507 30.4431 31.8117 30.3483 31.6291C30.236 31.4151 30.0964 31.2127 29.9684 31.0068C30.0223 30.9638 30.0863 30.9795 30.1468 30.9795C31.8153 30.9795 33.4818 30.9795 35.1504 30.9795C35.1987 30.9795 35.2471 30.9714 35.2567 30.9795C33.5499 30.9795 31.8098 30.9755 30.0677 30.9795C30.0309 30.9795 29.9976 30.9831 29.9689 31.0068C29.9321 30.9679 29.9281 30.9249 29.99 30.9173C30.0677 30.9057 30.1468 30.9092 30.2244 30.9092C32.0517 30.9092 33.8789 30.9052 35.7082 30.9133C35.9214 30.9133 36.0494 30.8622 36.1265 30.6522C36.1925 30.4655 36.2933 30.2905 36.3981 30.115C36.5105 29.9283 36.4561 29.8893 36.2585 29.8893C35.0864 29.8974 33.9142 29.8934 32.7436 29.8934C31.7029 29.8934 30.6623 29.8858 29.6217 29.9015C29.4105 29.9055 29.3022 29.8312 29.2326 29.6486C29.1822 29.516 29.1087 29.3956 29.0482 29.2712C28.9066 28.9838 28.9222 28.956 29.2341 28.956C30.9299 28.956 32.6251 28.956 34.3229 28.956C35.1272 28.956 35.9295 28.9525 36.7352 28.96C36.898 28.96 36.9983 28.9135 37.0527 28.7582C37.1228 28.5594 37.1963 28.3656 37.2815 28.1709C37.3395 28.0424 37.3087 27.9918 37.1732 27.9918C37.1031 27.9953 37.0336 27.9918 36.9635 27.9918C34.2609 27.9918 31.5593 27.9953 28.8582 27.9918C28.7594 27.9918 28.6486 28.0343 28.5599 27.9488C28.6334 27.9058 28.7151 27.9255 28.7922 27.9255C31.2726 27.9215 33.755 27.9215 36.2389 27.9215C36.3049 27.9215 36.3744 27.9174 36.39 27.9215C35.6921 27.9215 34.9427 27.9215 34.1909 27.9215C32.4079 27.9215 30.6255 27.9215 28.8426 27.9215C28.7478 27.9215 28.6506 27.8977 28.5579 27.9447C28.3719 27.6877 28.3815 27.3615 28.2147 27.0539C28.3774 27.0539 28.4898 27.0539 28.6022 27.0539C31.5104 27.0539 34.4212 27.0498 37.3279 27.0615C37.5758 27.0615 37.6957 26.9917 37.731 26.7504C37.7542 26.5875 37.789 26.4235 37.8434 26.2703C37.9134 26.0775 37.855 26.0325 37.6615 26.0345C36.832 26.0426 36.0025 26.0386 35.173 26.0365C35.0682 25.7897 35.167 25.2469 35.3514 25.0602C35.5923 24.9879 35.8362 25.0192 36.0801 25.0233C36.58 25.0293 37.0764 24.9904 37.5723 25.0445C37.6963 25.0814 37.7466 25.1846 37.8046 25.2838C38.3357 26.1554 39.1184 26.591 40.1298 26.6107C40.5138 26.6188 40.9008 26.6401 41.2808 26.5566C41.4516 26.5176 41.6219 26.4746 41.7731 26.3811C41.9051 26.3037 41.9979 26.1964 42.0251 26.0345C42.0871 25.6728 42.1687 25.3167 42.2307 24.9317C41.5791 25.3597 40.8973 25.4047 40.1842 25.1943C39.5215 24.998 39.1259 24.5508 39.0483 23.8618C38.9475 22.9593 39.2071 22.1402 39.7342 21.4108C39.9705 21.0915 40.3001 20.8877 40.6952 20.8174C41.3463 20.7045 41.9822 20.7415 42.6021 20.9944C42.8576 21.0996 42.8651 21.0915 42.912 20.8077C42.9584 20.5042 43.0123 20.2007 43.0743 19.9012C43.1055 19.7631 43.0783 19.6599 42.9312 19.6113C41.8074 19.2339 40.6871 19.1773 39.5749 19.6483C39.141 19.8329 38.7767 20.1056 38.4935 20.4966C38.4123 20.6094 38.3574 20.7906 38.1563 20.7688C38.1644 20.5842 38.1407 20.4597 37.8928 20.4597C34.5734 20.4693 31.2564 20.4673 27.939 20.4693C27.8947 20.1562 27.8846 19.8506 28.125 19.5997C30.1579 19.5977 32.1882 19.5997 34.2211 19.5977C32.1923 19.5957 30.1634 19.5997 28.1346 19.5957C28.0937 19.5921 28.0786 19.5683 28.0882 19.5279C31.2721 19.5279 34.4554 19.5279 37.6378 19.5258C37.9633 19.5258 37.9633 19.5258 37.8933 19.2147C37.7461 18.5652 37.7461 18.5652 37.0759 18.5652C34.1889 18.5652 31.3013 18.5652 28.4157 18.5652C28.1058 18.5652 28.1058 18.5652 28.2066 18.2637C28.2762 18.0593 28.2918 17.7871 28.4334 17.6682C28.5921 17.5362 28.8693 17.6273 29.0961 17.6273C31.7201 17.6252 34.3436 17.6252 36.9671 17.6252C37.1223 17.6252 37.277 17.6252 37.4629 17.6252C37.3621 17.3258 37.2694 17.0536 37.1797 16.7809C37.1258 16.6039 36.9897 16.6099 36.8466 16.6099C34.851 16.612 32.8569 16.612 30.8629 16.612C30.2682 16.612 29.6731 16.612 29.0779 16.6079C28.9968 16.6079 28.9015 16.6469 28.832 16.569C28.9232 16.5204 29.02 16.5437 29.1152 16.5437C31.4983 16.5416 33.884 16.5437 36.2656 16.5416C36.3467 16.5416 36.4283 16.5594 36.5019 16.5184C36.5332 16.4951 36.4747 16.4814 36.4979 16.5067C36.5095 16.5204 36.506 16.5244 36.4868 16.53C36.4289 16.5513 36.3704 16.5396 36.3119 16.5396C33.8915 16.5416 31.4716 16.5416 29.0532 16.5396C28.9756 16.5396 28.896 16.5594 28.8224 16.5163C28.8572 16.4369 28.9056 16.3585 28.9212 16.2771C29.0336 15.7049 29.4095 15.6548 29.9134 15.6604C32.0698 15.6877 34.2287 15.672 36.3855 15.672C36.4707 15.672 36.5599 15.672 36.6914 15.672C36.517 15.3316 36.3583 15.0124 36.1915 14.7033C36.1144 14.5672 35.9632 14.6587 35.8503 14.6213C35.7652 14.5631 35.6644 14.594 35.5712 14.592C33.7419 14.5899 31.9126 14.592 30.0818 14.5899C29.9885 14.5899 29.8898 14.6173 29.8006 14.5606C29.9109 14.2844 30.0873 14.0451 30.2289 13.7866C30.2909 13.6718 30.3992 13.7224 30.4864 13.7224C32.0753 13.7183 33.6668 13.7183 35.2552 13.7183C35.3499 13.7183 35.4432 13.7183 35.5792 13.7183C35.36 13.347 35.1292 13.0258 34.8722 12.7263C34.7986 12.6423 34.6903 12.6777 34.5991 12.6777C33.4188 12.6757 32.2406 12.6757 31.0181 12.6757C31.266 12.3782 31.4893 12.1076 31.7135 11.8415C31.7911 11.7479 31.9035 11.7656 32.0078 11.7656C32.6629 11.7656 33.316 11.7656 34.021 11.7656C33.7479 11.2714 33.2984 10.9931 32.9557 10.6178C33.3312 10.2034 33.7887 9.88423 34.2322 9.55187C35.1625 8.84768 36.1759 8.2816 37.2377 7.8091C38.3232 7.32649 39.4545 6.98806 40.6211 6.75687C41.7842 6.5272 42.9543 6.41995 44.1366 6.45536C45.4619 6.49634 46.7681 6.69464 48.0511 7.05433C48.9814 7.31536 49.8845 7.65177 50.7523 8.0757C51.8135 8.59676 52.8058 9.23519 53.732 9.97782C54.3519 10.4756 54.9339 11.0129 55.4762 11.5926C56.29 12.4622 56.988 13.4209 57.6078 14.4382C58.2161 15.4343 58.6731 16.4941 59.0299 17.5974C59.293 18.4104 59.487 19.241 59.6341 20.0854C59.8629 21.3885 59.805 22.7013 59.7621 24.007C59.7309 25.0435 59.491 26.0623 59.2043 27.0605C58.8787 28.185 58.4484 29.2661 57.8905 30.2941C57.379 31.2431 56.7743 32.1339 56.0769 32.955C55.7241 33.3749 55.3678 33.7912 54.9687 34.1727C53.9956 35.1106 52.9338 35.9311 51.7712 36.6196C50.1783 37.5611 48.4614 38.1646 46.6557 38.5298C45.4816 38.7711 44.2877 38.7479 43.098 38.7514C41.7681 38.7595 40.4896 38.5065 39.2186 38.156C38.0556 37.8368 36.9555 37.3658 35.9088 36.7749C34.9674 36.2458 34.0704 35.6392 33.2601 34.9112C33.1583 34.8227 33.0172 34.7721 32.9567 34.636Z" fill="white"/>
<path fill-rule="evenodd" clip-rule="evenodd" d="M14.1301 21.6822C13.8121 22.4431 13.4927 23.2034 13.1767 23.9643C12.8199 24.8217 12.4656 25.6823 12.1149 26.5417C12.0665 26.6581 11.995 26.6955 11.8745 26.6935C11.4195 26.6874 10.9659 26.6854 10.5104 26.6935C10.332 26.6976 10.2876 26.6217 10.2896 26.4583C10.3047 25.6721 10.2004 24.8941 10.1793 24.11C10.1616 23.5105 10.1092 22.912 10.0729 22.3146C10.0573 22.0753 10.0477 21.832 9.97215 21.5851C9.92579 21.8279 9.87539 22.0713 9.83256 22.3166C9.59621 23.723 9.35583 25.1293 9.12906 26.5377C9.1079 26.6682 9.06506 26.6935 8.95268 26.6915C8.54953 26.6895 8.1484 26.6839 7.74525 26.6935C7.57643 26.6996 7.5593 26.6217 7.58248 26.4856C7.78809 25.316 7.98563 24.1434 8.19476 22.9727C8.35955 22.0348 8.53744 21.0974 8.70626 20.1595C8.72541 20.0508 8.75665 19.9278 8.7506 19.8307C8.72742 19.4943 8.89775 19.4457 9.16535 19.4766C9.26009 19.4867 9.35735 19.4705 9.45209 19.467C9.97719 19.4225 10.5023 19.4225 11.0274 19.467C11.0798 19.4705 11.1322 19.4847 11.1826 19.4766C11.3761 19.4473 11.4245 19.5191 11.4366 19.7194C11.4905 20.6649 11.5429 21.6145 11.5953 22.5594C11.615 22.8847 11.5933 23.2171 11.6674 23.6238C11.8765 23.122 12.0549 22.69 12.2348 22.2605C12.6027 21.3711 12.9711 20.4803 13.3415 19.5914C13.3803 19.4978 13.4498 19.4746 13.5486 19.4766C13.793 19.4806 14.0369 19.4705 14.2813 19.467C14.6321 19.4245 14.9808 19.4245 15.3315 19.467C15.5134 19.4705 15.6994 19.4923 15.8798 19.4746C16.097 19.4553 16.1277 19.5525 16.095 19.7336C15.9902 20.3285 15.8934 20.9259 15.7871 21.5214C15.6359 22.3773 15.4792 23.2328 15.3275 24.0892C15.1864 24.8845 15.0483 25.6823 14.9072 26.478C14.884 26.6085 14.8392 26.7057 14.6573 26.6981C14.2733 26.6768 13.8877 26.6879 13.5042 26.692C13.3551 26.694 13.3259 26.6748 13.3591 26.4993C13.5486 25.49 13.7139 24.4762 13.8877 23.465C13.9825 22.9201 14.0777 22.3778 14.1745 21.833C14.2269 21.7743 14.2113 21.7065 14.1765 21.6519C14.1594 21.6241 14.1478 21.6726 14.1301 21.6822Z" fill="#808080"/>
<path fill-rule="evenodd" clip-rule="evenodd" d="M28.4419 23.1456C28.5987 22.2431 29.0638 21.541 29.8353 21.0604C30.1493 20.8661 30.5156 20.7766 30.8815 20.7437C31.7206 20.6678 32.5405 20.6992 33.1759 21.372C33.4586 21.6715 33.5826 22.0433 33.6411 22.4521C33.7202 22.9944 33.5634 23.5139 33.5342 24.0466C33.5262 24.2292 33.3891 24.165 33.3019 24.165C32.296 24.169 31.2902 24.167 30.2848 24.167C29.9532 24.167 29.9225 24.212 30.0172 24.5312C30.1644 25.0366 30.626 25.3619 31.143 25.4221C31.6681 25.4823 32.1761 25.4823 32.674 25.3073C32.8892 25.2293 33.0943 25.1186 33.3331 25.0093C33.2576 25.4646 33.1875 25.9007 33.116 26.3342C33.1003 26.4197 33.0192 26.4313 32.9607 26.4627C32.7143 26.5988 32.4392 26.6747 32.1721 26.6807C31.389 26.6979 30.5968 26.7662 29.8409 26.443C29.0194 26.0929 28.5331 25.4959 28.3936 24.6046C28.3643 24.424 28.3588 24.2429 28.3391 24.0623C28.2212 23.739 28.2812 23.4375 28.4419 23.1456Z" fill="#808080"/>
<path fill-rule="evenodd" clip-rule="evenodd" d="M38.1578 20.7685C38.4717 20.3992 38.7741 20.0234 39.1999 19.7669C39.6651 19.4846 40.173 19.3328 40.6961 19.2843C41.4833 19.2069 42.2613 19.2843 43.0097 19.5584C43.1296 19.603 43.2234 19.65 43.1725 19.8428C43.0757 20.1908 43.0057 20.5525 42.9784 20.9147C42.9593 21.2299 42.8585 21.1849 42.6373 21.0822C42.0638 20.8156 41.455 20.7766 40.8317 20.8621C40.1493 20.9537 39.7658 21.4029 39.4751 21.967C39.1888 22.533 39.0447 23.1376 39.1072 23.774C39.1929 24.6203 39.6343 25.0518 40.553 25.2056C41.1769 25.3108 41.7503 25.194 42.2891 24.7969C42.3082 25.0731 42.2155 25.3068 42.1923 25.5456C42.1726 25.7424 42.1263 25.9366 42.0915 26.1329C42.0567 26.3449 41.8864 26.446 41.7236 26.5042C40.7702 26.8447 38.9606 26.8487 38.1114 25.8294C37.9214 25.5997 37.7511 25.3645 37.6231 25.0979C37.3908 24.9036 37.3908 24.6117 37.3248 24.3476C37.2976 24.2485 37.3011 24.1433 37.2935 24.0401C37.2315 23.7345 37.1968 23.4335 37.3631 23.1452C37.4986 22.3115 37.735 21.5081 38.1578 20.7685Z" fill="#808080"/>
<path fill-rule="evenodd" clip-rule="evenodd" d="M24.0616 20.7256C24.5211 20.712 24.9782 20.7317 25.4338 20.8192C25.5986 20.8506 25.591 20.9244 25.5693 21.0291C25.5074 21.3347 25.4358 21.6382 25.3718 21.9418C25.3446 22.0622 25.2826 22.1148 25.1526 22.1107C24.9354 22.1026 24.7167 22.0738 24.507 22.0389C24.1896 21.9883 23.8948 22.0642 23.5929 22.1026C23.3545 22.134 23.159 22.2736 23.1394 22.5018C23.1182 22.7431 23.3157 22.9125 23.5249 23.0097C23.8061 23.1377 24.1004 23.2409 24.3911 23.3441C25.1138 23.599 25.3602 24.2638 25.2342 24.9604C25.2131 25.0808 25.2226 25.1996 25.1934 25.3221C24.9843 26.1917 24.2208 26.5766 23.4553 26.6955C23.031 26.7598 22.6027 26.7618 22.1804 26.7345C21.7465 26.7051 21.3045 26.7072 20.8857 26.5397C20.7325 26.4795 20.6882 26.4234 20.7386 26.2519C20.8162 25.9893 20.8762 25.7151 20.9054 25.4404C20.9266 25.2401 21.0198 25.2153 21.171 25.2614C21.7233 25.4308 22.2892 25.4814 22.8642 25.4657C23.2694 25.4521 23.4861 25.2224 23.4709 24.8217C23.4654 24.6487 23.3777 24.5577 23.2366 24.4793C22.8299 24.2521 22.3648 24.1545 21.9712 23.8838C21.4345 23.5125 21.3222 22.9834 21.3801 22.4208C21.4129 22.1021 21.5142 21.8006 21.69 21.5244C21.9979 21.0458 22.4752 20.8789 22.9962 20.7737C23.3485 20.7018 23.7048 20.7312 24.0616 20.7256Z" fill="#808080"/>
<path fill-rule="evenodd" clip-rule="evenodd" d="M28.0919 19.5273C28.0864 19.543 28.0864 19.5566 28.0939 19.5718C28.1075 19.5834 28.1136 19.5951 28.1096 19.6067C28.1055 19.6163 28.1 19.6224 28.096 19.6224C28.0456 19.9047 27.9931 20.1865 27.9428 20.4682C27.9291 20.579 27.9135 20.6898 27.8964 20.8244C28.1947 20.8244 28.4951 20.8244 28.811 20.8244C28.741 21.221 28.6654 21.5908 28.619 21.9621C28.6014 22.1002 28.5414 22.1098 28.4351 22.1083C28.2607 22.1043 28.0768 22.1412 27.914 22.0987C27.6505 22.0264 27.6177 22.1862 27.5824 22.3668C27.5477 22.5515 27.5144 22.7381 27.4817 22.9253C27.4756 23.0245 27.4872 23.1221 27.4932 23.2212C27.466 23.3204 27.4872 23.4332 27.4061 23.5167C27.3128 24.0342 27.2161 24.5517 27.1289 25.0708C27.0997 25.2402 27.1405 25.3566 27.3385 25.4289C27.6157 25.5281 27.8793 25.5083 28.1448 25.4309C28.3021 25.3879 28.3192 25.4562 28.29 25.5726C28.2224 25.8316 28.1544 26.0901 28.1388 26.3567C28.1348 26.4442 28.0713 26.4675 28.0093 26.5024C27.8485 26.594 27.6721 26.637 27.4917 26.6582C26.9822 26.7184 26.4708 26.7381 25.9764 26.5788C25.5848 26.4523 25.3969 26.12 25.4805 25.6606C25.6297 24.8279 25.7536 23.9937 25.9205 23.1651C26.0888 22.3228 26.2112 21.4704 26.3528 20.6205C26.4068 20.3074 26.4577 19.9942 26.5176 19.6826C26.5428 19.5485 26.6013 19.4646 26.7751 19.4722C27.1511 19.4919 27.527 19.4762 27.9029 19.4802C27.968 19.4808 28.0451 19.4494 28.0919 19.5273Z" fill="#808080"/>
<path fill-rule="evenodd" clip-rule="evenodd" d="M35.3345 25.0982C35.2398 25.4038 35.1874 25.7174 35.1758 26.0361C35.075 26.1707 35.0967 26.3401 35.079 26.4858C35.0599 26.6649 35.004 26.6978 34.8447 26.6938C34.4355 26.6857 34.0248 26.6842 33.6146 26.6938C33.4377 26.6998 33.4186 26.6396 33.4498 26.4777C33.6201 25.5732 33.7849 24.6667 33.9401 23.7586C34.1009 22.8303 34.248 21.9005 34.3972 20.9727C34.4169 20.8402 34.4884 20.825 34.5968 20.8265C35.0231 20.8306 35.4509 20.8306 35.8773 20.825C36.0133 20.825 36.095 20.864 36.029 21.0056C35.971 21.122 36.033 21.2545 35.9589 21.3618C35.912 21.4199 35.9393 21.4923 35.9317 21.556C35.9277 21.5909 35.9428 21.6127 35.9393 21.5773C35.9393 21.5752 35.9509 21.5697 35.9589 21.5656C36.1721 21.472 36.2532 21.2409 36.4351 21.1027C36.8458 20.7856 37.2959 20.7547 37.8149 20.7896C37.571 21.1822 37.3846 21.5697 37.3029 21.9977C37.2918 22.0558 37.2878 22.1181 37.2722 22.1747C37.2404 22.2739 37.2525 22.3669 37.0625 22.328C36.5047 22.2152 35.8113 22.6533 35.6984 23.147C35.7332 23.4683 35.5825 23.7617 35.5593 24.0728C35.4777 24.4137 35.4978 24.7775 35.3345 25.0982Z" fill="#808080"/>
<path fill-rule="evenodd" clip-rule="evenodd" d="M35.4922 24.0617C35.5501 23.7546 35.5622 23.4374 35.6973 23.147C36.2516 23.147 36.8054 23.147 37.3638 23.145C37.3406 23.4506 37.2746 23.7561 37.3638 24.0617C37.3406 24.0769 37.3255 24.0986 37.2983 24.1022C36.7168 24.1532 36.1352 24.1548 35.5582 24.1001C35.531 24.0991 35.5113 24.0753 35.4922 24.0617Z" fill="white"/>
<path fill-rule="evenodd" clip-rule="evenodd" d="M27.4648 23.2233C27.4704 23.1222 27.4764 23.023 27.4824 22.9233C27.486 23.0928 27.554 23.1662 27.7379 23.153C27.9723 23.1338 28.2091 23.1469 28.4435 23.1449C28.3971 23.4505 28.3386 23.752 28.3407 24.0616C28.1663 24.0616 27.9919 24.0596 27.8176 24.0575C27.4824 24.0575 27.4593 24.0363 27.4573 23.7054C27.4573 23.6452 27.4593 23.583 27.4613 23.5228C27.486 23.4216 27.3852 23.321 27.4648 23.2233Z" fill="white"/>
<path fill-rule="evenodd" clip-rule="evenodd" d="M54.8014 26.2499C54.3322 26.6121 53.8172 26.816 53.2281 26.7927C52.4062 26.7578 51.8367 26.3162 51.5419 25.612C51.0067 24.32 51.2476 23.0967 52.0146 21.9843C52.5609 21.1966 53.3359 20.7611 54.3247 20.8329C54.8553 20.8698 55.2781 21.1228 55.6152 21.6069C55.712 21.0641 55.8093 20.5704 55.8904 20.0741C55.9095 19.9552 55.9604 19.8424 55.9524 19.7159C55.9443 19.6168 55.9992 19.5293 56.1232 19.5313C56.5843 19.5313 57.0454 19.5313 57.5146 19.5313C57.3397 20.5486 57.1734 21.5427 57.0026 22.5347C56.7975 23.7367 56.5954 24.9412 56.3827 26.1432C56.286 26.6915 56.2744 26.6895 55.7201 26.6895C55.4762 26.6895 55.2277 26.6683 54.9878 26.6956C54.7399 26.7249 54.7127 26.6081 54.7515 26.4194C54.7626 26.3607 54.7863 26.3066 54.8014 26.2499Z" fill="#808080"/>
<path fill-rule="evenodd" clip-rule="evenodd" d="M45.7707 26.2463C45.4144 26.4911 45.0692 26.6874 44.6742 26.7633C43.9571 26.8979 43.306 26.8215 42.7789 26.2443C42.5848 26.0318 42.5037 25.7733 42.4689 25.5128C42.3873 24.8511 42.5077 24.2172 42.9804 23.7194C43.3876 23.293 43.9031 23.0542 44.4922 22.992C45.0425 22.9338 45.5928 22.8594 46.1507 22.8832C46.2938 22.8888 46.2903 22.7041 46.2747 22.5989C46.2318 22.309 45.9915 22.1127 45.6704 22.1087C44.9226 22.0991 44.1743 22.091 43.4652 22.3712C43.3216 22.4254 43.3065 22.3343 43.3332 22.2392C43.438 21.8557 43.562 21.4789 43.6623 21.0934C43.6895 20.9866 43.763 20.9634 43.8447 20.934C44.2357 20.8 44.6469 20.7241 45.0612 20.7281C45.6155 20.7337 46.1774 20.6578 46.7201 20.8313C47.3173 21.02 47.8404 21.3139 48.0107 21.9711C48.1155 22.3819 48.0107 22.8038 47.9215 23.21C47.6852 24.3133 47.4715 25.4197 47.2856 26.5301C47.2548 26.7077 47.1893 26.7466 47.0341 26.7446C46.7086 26.7365 46.383 26.7228 46.061 26.7481C45.8131 26.7658 45.7355 26.6763 45.7702 26.4426C45.7788 26.394 45.7707 26.3429 45.7707 26.2463Z" fill="#808080"/>
<path fill-rule="evenodd" clip-rule="evenodd" d="M50.2507 21.704C50.7002 21.1516 51.1729 20.7434 51.9016 20.7818C51.8739 21.2214 51.7696 21.6342 51.7 22.0521C51.6809 22.1705 51.6421 22.2079 51.5181 22.2135C50.4951 22.2696 50.03 22.7274 49.8788 23.7695C49.7468 24.668 49.5799 25.5649 49.4288 26.4639C49.4016 26.6096 49.3476 26.7052 49.1576 26.6951C48.7585 26.6779 48.3554 26.687 47.9522 26.691C47.8162 26.693 47.7779 26.6677 47.8051 26.5119C47.9638 25.6287 48.111 24.7439 48.2813 23.8647C48.4597 22.95 48.6068 22.0323 48.758 21.1121C48.7893 20.9078 48.8472 20.8106 49.076 20.8223C49.4519 20.8435 49.8274 20.8278 50.2033 20.8278C50.3122 20.8278 50.4049 20.8046 50.351 20.9892C50.2895 21.2022 50.2855 21.4298 50.2507 21.704Z" fill="#808080"/>
<path fill-rule="evenodd" clip-rule="evenodd" d="M35.4948 24.0615C36.1187 24.0615 36.7431 24.0615 37.3664 24.0615C37.378 24.4253 37.4753 24.7693 37.6265 25.0981C36.863 25.0981 36.0995 25.0981 35.3361 25.0981C35.3315 24.7445 35.4328 24.406 35.4948 24.0615Z" fill="#E6E6E6"/>
<path fill-rule="evenodd" clip-rule="evenodd" d="M20.8213 21.4938C20.4398 21.0562 19.9414 20.8149 19.3639 20.782C18.8736 20.7547 18.3817 20.78 17.8914 20.7744C17.6203 20.7704 17.3602 20.8326 17.1027 20.8948C16.9904 20.9221 16.812 20.9358 16.7696 21.0602C16.628 21.4806 16.5136 21.9126 16.3856 22.3502C16.5388 22.3598 16.6316 22.2819 16.7364 22.2531C17.2071 22.1226 17.6918 22.1089 18.1701 22.0644C18.5168 22.0315 18.8811 22.0042 19.1875 22.2531C19.3715 22.4028 19.4047 22.5996 19.3558 22.8075C19.3034 23.0195 19.1175 22.934 18.9854 22.936C18.4835 22.9462 17.9856 22.973 17.4837 23.0296C16.4491 23.146 15.4221 24.0839 15.5269 25.2727C15.5733 25.7917 15.7381 26.2217 16.1856 26.5076C16.7147 26.844 17.2801 26.8637 17.8733 26.7023C18.2356 26.6052 18.5631 26.4433 18.8811 26.2258C18.9295 26.4013 18.9043 26.5349 18.8615 26.6927C19.1911 26.6927 19.505 26.6927 19.8169 26.6927C20.3148 26.6927 20.3264 26.6927 20.3945 26.2126C20.4136 26.0841 20.4353 25.9536 20.4585 25.8271C20.652 24.783 20.8515 23.7399 21.0571 22.6957C21.1433 22.2587 21.1221 21.8403 20.8213 21.4938ZM19.1707 24.2177C19.0911 24.4782 19.0563 24.7448 18.9187 24.9957C18.7232 25.3473 17.8897 25.6124 17.4749 25.4566C17.3046 25.3943 17.221 25.2208 17.221 24.9213C17.1706 24.5713 17.4417 24.3922 17.6745 24.2328C18.0409 23.9839 18.4747 23.9157 18.9127 23.9121C19.1047 23.9126 19.2498 23.9531 19.1707 24.2177Z" fill="#808080"/>
<path fill-rule="evenodd" clip-rule="evenodd" d="M30.2305 23.0423C30.2516 22.4687 30.6261 22.0584 31.2152 21.9592C31.6027 21.895 32.027 22.2491 32.087 22.6477C32.1474 23.0423 32.1474 23.0423 31.7478 23.0423C31.2439 23.0423 30.7379 23.0423 30.2305 23.0423Z" fill="#E6E6E6"/>
<path fill-rule="evenodd" clip-rule="evenodd" d="M55.271 23.3814C55.2629 24.0795 55.0729 24.7078 54.4959 25.1454C53.8796 25.6164 53.2638 25.3807 53.0929 24.6395C52.8994 23.8069 53.1161 23.0931 53.6669 22.4728C53.8801 22.2295 54.1668 22.1228 54.4999 22.14C54.9182 22.1632 55.2442 22.6904 55.271 23.1163C55.275 23.2038 55.271 23.2934 55.271 23.3814Z" fill="white"/>
<path fill-rule="evenodd" clip-rule="evenodd" d="M45.7739 23.9082C46.0687 23.9102 46.0994 23.9608 46.0918 24.235C46.0646 25.0985 45.4911 25.4238 44.7977 25.5108C44.5846 25.5361 44.3558 25.4997 44.2358 25.2756C44.0887 25.0014 44.123 24.7055 44.3129 24.4819C44.5886 24.1571 44.9529 24.0129 45.3596 23.9588C45.5068 23.9391 45.6499 23.9234 45.7739 23.9082Z" fill="white"/>
</svg>
