<svg width="35" height="33" viewBox="0 0 35 33" fill="none" xmlns="http://www.w3.org/2000/svg">
<path fill-rule="evenodd" clip-rule="evenodd" d="M17.1182 27.0016L6.53748 32.5642L8.55822 20.7823L-0.0017792 12.4384L11.8279 10.7195L17.1182 0L22.4086 10.7195L34.2382 12.4384L25.6782 20.7823L27.699 32.5642L17.1182 27.0016Z" fill="white"/>
<path d="M17.3509 26.559L17.1182 26.4367L16.8856 26.559L7.20154 31.6502L9.05103 20.8669L9.09546 20.6078L8.90723 20.4243L1.0727 12.7875L11.8997 11.2143L12.1599 11.1765L12.2762 10.9407L17.1182 1.12978L21.9602 10.9407L22.0766 11.1765L22.3367 11.2143L33.1637 12.7875L25.3292 20.4243L25.141 20.6078L25.1854 20.8669L27.0349 31.6502L17.3509 26.559Z" stroke="black" stroke-opacity="0.401806"/>
</svg>
