<svg width="202" height="225" viewBox="0 0 202 225" fill="none" xmlns="http://www.w3.org/2000/svg">
<path fill-rule="evenodd" clip-rule="evenodd" d="M100.246 0.194458L0.169922 111.889L100.246 224.519L201.109 112.357L100.246 0.194458Z" fill="#F5F5F5"/>
<path fill-rule="evenodd" clip-rule="evenodd" d="M42.6133 105.114C41.4069 105.114 40.2752 105.37 39.2183 105.882C38.1613 106.394 37.2399 107.12 36.4541 108.062C35.6683 109.003 35.0485 110.145 34.5947 111.488C34.1409 112.831 33.9141 114.329 33.9141 115.98C33.9141 117.048 34.022 118.052 34.2378 118.994C34.4536 119.935 34.7607 120.805 35.1592 121.603C35.5576 122.401 36.0335 123.117 36.5869 123.75C37.1403 124.383 37.7546 124.919 38.4297 125.36C39.1048 125.8 39.8297 126.139 40.6045 126.375C41.3792 126.612 42.1872 126.73 43.0283 126.73C43.7699 126.73 44.5086 126.648 45.2446 126.483C45.9806 126.318 46.689 126.07 47.3696 125.74C48.0503 125.409 48.6895 125.002 49.2871 124.518C49.8848 124.033 50.416 123.477 50.8809 122.85L51.7607 123.56C51.0303 124.562 50.2472 125.382 49.4116 126.02C48.576 126.659 47.7349 127.163 46.8882 127.531C46.0415 127.9 45.2114 128.153 44.3979 128.291C43.5845 128.429 42.8291 128.497 42.1318 128.497C40.4274 128.497 38.8669 128.186 37.4502 127.564C36.0335 126.942 34.8161 126.092 33.7979 125.013C32.7796 123.934 31.9883 122.665 31.4238 121.207C30.8594 119.748 30.5771 118.176 30.5771 116.492C30.5771 115.435 30.6851 114.384 30.9009 113.338C31.1167 112.292 31.4432 111.298 31.8804 110.357C32.3175 109.416 32.8626 108.541 33.5156 107.731C34.1686 106.922 34.9323 106.22 35.8066 105.626C36.681 105.031 37.666 104.566 38.7617 104.23C39.8574 103.895 41.0638 103.727 42.3809 103.727C43.6647 103.727 44.8656 103.897 45.9834 104.239C47.1012 104.58 48.1859 105.097 49.2373 105.791L49.0713 103.975H50.9141V111.819H49.6855C49.5638 110.762 49.312 109.818 48.9302 108.986C48.5483 108.155 48.0558 107.453 47.4526 106.881C46.8494 106.308 46.1384 105.871 45.3193 105.568C44.5003 105.265 43.5983 105.114 42.6133 105.114ZM75.0053 105.395C74.2859 105.45 73.6329 105.546 73.0463 105.684C72.4597 105.821 71.9008 106.052 71.3695 106.377C70.8383 106.702 70.3098 107.148 69.7841 107.715C69.2584 108.282 68.7078 109.028 68.1322 109.952L64.8119 115.237C65.1329 115.435 65.4206 115.647 65.6752 115.873C65.9298 116.098 66.1677 116.332 66.3891 116.574C66.6104 116.817 66.8207 117.067 67.0199 117.326C67.2191 117.585 67.4239 117.846 67.6342 118.11L71.4359 123.147C72.0779 124.006 72.6313 124.68 73.0961 125.17C73.5609 125.66 73.9815 126.029 74.3578 126.276C74.7341 126.524 75.0828 126.678 75.4037 126.739C75.7247 126.799 76.0678 126.829 76.433 126.829V127.952H72.2826C72.1166 127.952 71.9063 127.862 71.6518 127.68C71.3972 127.498 71.1177 127.253 70.8134 126.945C70.509 126.637 70.1881 126.282 69.8505 125.88C69.5129 125.478 69.1781 125.063 68.8461 124.633L64.7787 119.167C64.3471 118.606 63.9154 118.072 63.4838 117.565C63.0522 117.059 62.6316 116.679 62.2221 116.426L60.5619 116.459V123.923C60.5619 124.54 60.5536 125.068 60.537 125.508C60.5204 125.949 60.49 126.312 60.4457 126.598L62.9027 126.466V127.952H55.2494V126.829C55.8914 126.807 56.3728 126.692 56.6938 126.483C57.0147 126.274 57.2416 125.987 57.3744 125.624C57.5072 125.261 57.5764 124.829 57.5819 124.328C57.5875 123.827 57.5902 123.279 57.5902 122.685V108.07C57.5902 107.608 57.5985 107.17 57.6151 106.757C57.6317 106.344 57.6622 105.967 57.7065 105.626L55.2494 105.774V104.272H62.9027V105.395C62.2608 105.417 61.7794 105.535 61.4584 105.75C61.1374 105.964 60.9106 106.253 60.7777 106.617C60.6449 106.98 60.5758 107.409 60.5702 107.905C60.5647 108.4 60.5619 108.951 60.5619 109.556V115.105H63.102L67.352 108.433C67.4958 108.213 67.6591 107.976 67.8417 107.723C68.0243 107.47 68.218 107.217 68.4228 106.963C68.6275 106.71 68.8461 106.465 69.0785 106.229C69.3109 105.992 69.5434 105.78 69.7758 105.593L67.7006 105.659V104.272H75.0053V105.395ZM102.184 105.395C101.554 105.417 101.075 105.535 100.748 105.75C100.422 105.964 100.192 106.253 100.059 106.617C99.9266 106.98 99.8574 107.409 99.8519 107.905C99.8463 108.4 99.8436 108.951 99.8436 109.556V123.923C99.8436 125.134 99.8104 126.026 99.744 126.598L102.184 126.466V127.952H94.5311V126.829C95.173 126.807 95.6572 126.692 95.9837 126.483C96.3102 126.274 96.5399 125.987 96.6727 125.624C96.8055 125.261 96.8747 124.829 96.8802 124.328C96.8857 123.827 96.8885 123.279 96.8885 122.685V109.11L84.3875 124.633C84.3764 125.063 84.3626 125.44 84.346 125.764C84.3294 126.089 84.3045 126.367 84.2713 126.598L86.7283 126.466V127.952H79.075V126.829C79.7169 126.807 80.1984 126.692 80.5193 126.483C80.8403 126.274 81.0672 125.987 81.2 125.624C81.3328 125.261 81.402 124.829 81.4075 124.328C81.4131 123.827 81.4158 123.279 81.4158 122.685V108.07C81.4158 107.608 81.4241 107.17 81.4407 106.757C81.4573 106.344 81.4878 105.967 81.532 105.626L79.075 105.774V104.272H86.7283V105.395C86.0864 105.417 85.605 105.535 85.284 105.75C84.963 105.964 84.7361 106.253 84.6033 106.617C84.4705 106.98 84.4013 107.409 84.3958 107.905C84.3903 108.4 84.3875 108.951 84.3875 109.556V122.338L96.9051 106.963C96.9162 106.71 96.9272 106.474 96.9383 106.253C96.9494 106.033 96.966 105.824 96.9881 105.626L94.5311 105.774V104.272H102.184V105.395ZM127.089 133.963H125.678C125.678 132.995 125.636 132.139 125.553 131.396C125.47 130.652 125.321 130.025 125.105 129.513C124.889 129.001 124.602 128.613 124.242 128.349C123.882 128.085 123.42 127.952 122.856 127.952H109.807C109.242 127.952 108.78 128.085 108.421 128.349C108.061 128.613 107.773 129.001 107.557 129.513C107.341 130.025 107.192 130.652 107.109 131.396C107.026 132.139 106.985 132.995 106.985 133.963H105.573V126.615H106.885C107.449 126.615 107.967 126.444 108.437 126.103C108.908 125.762 109.342 125.277 109.74 124.65C110.316 123.725 110.778 122.596 111.127 121.264C111.475 119.932 111.744 118.449 111.932 116.814C112.12 115.179 112.253 113.415 112.33 111.521C112.408 109.628 112.469 107.663 112.513 105.626H111.683L109.226 105.774V104.272H126.591V105.395C125.96 105.417 125.481 105.535 125.155 105.75C124.828 105.964 124.599 106.253 124.466 106.617C124.333 106.98 124.264 107.409 124.258 107.905C124.253 108.4 124.25 108.951 124.25 109.556V123.923C124.25 125.145 124.217 126.042 124.151 126.615H127.089V133.963ZM118.938 126.615C119.58 126.615 120.064 126.521 120.39 126.334C120.717 126.147 120.946 125.883 121.079 125.541C121.212 125.2 121.281 124.787 121.287 124.303C121.292 123.818 121.295 123.279 121.295 122.685V105.626H116.082C115.429 105.659 114.951 105.816 114.646 106.096C114.342 106.377 114.168 106.743 114.123 107.195C114.035 109.143 113.924 111.023 113.791 112.834C113.658 114.645 113.473 116.343 113.235 117.929C112.997 119.514 112.684 120.964 112.297 122.28C111.91 123.596 111.423 124.727 110.836 125.674C110.725 125.85 110.615 126.015 110.504 126.169C110.393 126.323 110.277 126.472 110.155 126.615H118.938ZM150.4 105.395C149.681 105.45 149.028 105.546 148.441 105.684C147.854 105.821 147.296 106.052 146.764 106.377C146.233 106.702 145.705 107.148 145.179 107.715C144.653 108.282 144.102 109.028 143.527 109.952L140.207 115.237C140.528 115.435 140.815 115.647 141.07 115.873C141.324 116.098 141.562 116.332 141.784 116.574C142.005 116.817 142.215 117.067 142.415 117.326C142.614 117.585 142.819 117.846 143.029 118.11L146.831 123.147C147.473 124.006 148.026 124.68 148.491 125.17C148.956 125.66 149.376 126.029 149.753 126.276C150.129 126.524 150.477 126.678 150.798 126.739C151.119 126.799 151.462 126.829 151.828 126.829V127.952H147.677C147.511 127.952 147.301 127.862 147.046 127.68C146.792 127.498 146.512 127.253 146.208 126.945C145.904 126.637 145.583 126.282 145.245 125.88C144.908 125.478 144.573 125.063 144.241 124.633L140.173 119.167C139.742 118.606 139.31 118.072 138.879 117.565C138.447 117.059 138.026 116.679 137.617 116.426L135.957 116.459V123.923C135.957 124.54 135.948 125.068 135.932 125.508C135.915 125.949 135.885 126.312 135.84 126.598L138.297 126.466V127.952H130.644V126.829C131.286 126.807 131.768 126.692 132.088 126.483C132.409 126.274 132.636 125.987 132.769 125.624C132.902 125.261 132.971 124.829 132.977 124.328C132.982 123.827 132.985 123.279 132.985 122.685V108.07C132.985 107.608 132.993 107.17 133.01 106.757C133.026 106.344 133.057 105.967 133.101 105.626L130.644 105.774V104.272H138.297V105.395C137.656 105.417 137.174 105.535 136.853 105.75C136.532 105.964 136.305 106.253 136.172 106.617C136.04 106.98 135.97 107.409 135.965 107.905C135.959 108.4 135.957 108.951 135.957 109.556V115.105H138.497L142.747 108.433C142.891 108.213 143.054 107.976 143.236 107.723C143.419 107.47 143.613 107.217 143.817 106.963C144.022 106.71 144.241 106.465 144.473 106.229C144.706 105.992 144.938 105.78 145.171 105.593L143.095 105.659V104.272H150.4V105.395ZM156.943 124.27C156.855 124.534 156.777 124.771 156.711 124.98C156.645 125.189 156.578 125.382 156.512 125.558C156.445 125.734 156.379 125.905 156.312 126.07C156.246 126.235 156.174 126.411 156.097 126.598L158.753 126.466V127.952H152.395V126.829C152.904 126.829 153.319 126.728 153.64 126.524C153.961 126.32 154.232 126.031 154.453 125.657C154.674 125.283 154.876 124.837 155.059 124.319C155.242 123.802 155.449 123.229 155.682 122.602L162.688 103.628H163.501L171.088 122.883C171.188 123.114 171.29 123.392 171.395 123.717C171.5 124.041 171.6 124.374 171.694 124.716C171.788 125.057 171.86 125.393 171.91 125.723C171.959 126.053 171.979 126.345 171.968 126.598L174.292 126.466V127.952H166.506V126.829C167.137 126.818 167.602 126.703 167.9 126.483C168.199 126.263 168.387 125.993 168.465 125.674C168.542 125.354 168.542 125.013 168.465 124.65C168.387 124.286 168.288 123.945 168.166 123.626L166.971 120.455L158.122 120.653C157.879 121.347 157.663 121.983 157.475 122.561C157.286 123.139 157.109 123.708 156.943 124.27ZM161.061 112.396C160.54 113.85 160.084 115.13 159.691 116.236C159.298 117.342 158.947 118.33 158.637 119.2H166.506L164.082 112.727L162.555 108.565H162.488L161.061 112.396Z" fill="#575757"/>
<path fill-rule="evenodd" clip-rule="evenodd" d="M15 144.862H36.75H58.5H102H189L145.5 195.593H102H58.5L15 144.862Z" fill="#EE6E56"/>
<path fill-rule="evenodd" clip-rule="evenodd" d="M89.3252 179.777C89.3252 180.389 89.3179 180.957 89.3032 181.482C89.2886 182.006 89.2373 182.494 89.1494 182.946L92.6211 182.815V184.651H81.2832V183.165H81.6348C82.3965 183.106 83.0117 182.935 83.4805 182.651C83.9492 182.367 84.3154 181.981 84.5791 181.493C84.8428 181.004 85.0186 180.425 85.1064 179.755C85.1943 179.085 85.2383 178.342 85.2383 177.526V176.018H71.5493V173.81L87.8091 152.588H89.3252V173.329L93.8735 173.373V176.018H89.3252V179.777ZM74.5156 173.111L85.2383 173.242V158.97H85.1504L74.5156 173.111ZM102.553 168.193C102.553 169.228 102.593 170.328 102.674 171.493C102.754 172.659 102.897 173.814 103.102 174.958C103.307 176.101 103.582 177.198 103.926 178.247C104.27 179.296 104.706 180.218 105.233 181.012C105.761 181.806 106.387 182.44 107.112 182.913C107.837 183.387 108.683 183.624 109.65 183.624C110.5 183.624 111.254 183.434 111.913 183.055C112.572 182.677 113.147 182.163 113.638 181.515C114.129 180.866 114.539 180.097 114.868 179.209C115.198 178.32 115.462 177.365 115.659 176.345C115.857 175.325 116 174.262 116.088 173.154C116.176 172.047 116.22 170.947 116.22 169.854C116.22 168.645 116.176 167.421 116.088 166.182C116 164.944 115.854 163.749 115.648 162.598C115.443 161.447 115.172 160.365 114.835 159.352C114.499 158.339 114.081 157.458 113.583 156.707C113.085 155.957 112.495 155.367 111.814 154.937C111.133 154.507 110.353 154.292 109.474 154.292C108.61 154.292 107.837 154.482 107.156 154.861C106.475 155.239 105.878 155.757 105.365 156.412C104.853 157.068 104.42 157.844 104.069 158.74C103.717 159.636 103.428 160.598 103.201 161.625C102.974 162.652 102.809 163.727 102.707 164.849C102.604 165.971 102.553 167.086 102.553 168.193ZM97.9165 169.111C97.9165 167.858 98.0117 166.579 98.2021 165.275C98.3926 163.971 98.6855 162.707 99.0811 161.483C99.4766 160.259 99.9856 159.108 100.608 158.03C101.231 156.952 101.974 156.008 102.838 155.199C103.703 154.391 104.695 153.753 105.816 153.287C106.936 152.821 108.192 152.588 109.584 152.588C111.034 152.588 112.32 152.817 113.44 153.276C114.561 153.735 115.539 154.362 116.374 155.156C117.209 155.95 117.912 156.879 118.483 157.942C119.054 159.006 119.516 160.139 119.867 161.341C120.219 162.543 120.471 163.793 120.625 165.089C120.779 166.386 120.856 167.654 120.856 168.892C120.856 170.131 120.768 171.399 120.592 172.695C120.417 173.992 120.135 175.249 119.746 176.466C119.358 177.682 118.864 178.833 118.263 179.919C117.663 181.004 116.938 181.952 116.088 182.76C115.238 183.569 114.257 184.206 113.144 184.673C112.03 185.139 110.778 185.372 109.386 185.372C107.863 185.372 106.519 185.143 105.354 184.684C104.19 184.225 103.183 183.602 102.333 182.815C101.483 182.028 100.777 181.106 100.213 180.05C99.6487 178.994 99.1946 177.861 98.8503 176.651C98.5061 175.442 98.2644 174.196 98.1252 172.914C97.9861 171.632 97.9165 170.364 97.9165 169.111Z" fill="white"/>
<path fill-rule="evenodd" clip-rule="evenodd" d="M125.271 156.168C125.271 156.414 125.291 156.684 125.33 156.979C125.369 157.273 125.437 157.547 125.535 157.8C125.633 158.052 125.77 158.264 125.945 158.436C126.121 158.607 126.346 158.693 126.619 158.693C126.86 158.693 127.063 158.627 127.229 158.494C127.396 158.361 127.527 158.191 127.625 157.984C127.723 157.777 127.793 157.549 127.835 157.299C127.877 157.05 127.898 156.809 127.898 156.576C127.898 156.317 127.877 156.038 127.835 155.74C127.793 155.442 127.721 155.167 127.62 154.914C127.519 154.662 127.384 154.451 127.215 154.283C127.046 154.115 126.834 154.031 126.58 154.031C126.326 154.031 126.115 154.107 125.945 154.259C125.776 154.411 125.641 154.596 125.54 154.812C125.439 155.029 125.369 155.261 125.33 155.507C125.291 155.753 125.271 155.973 125.271 156.168ZM137.41 153.807L125.857 167.076L124.559 165.872L135.955 152.496L137.41 153.807ZM122.82 156.459C122.82 155.999 122.905 155.533 123.074 155.06C123.243 154.587 123.489 154.162 123.812 153.783C124.134 153.404 124.529 153.095 124.998 152.855C125.467 152.616 126.004 152.496 126.609 152.496C127.215 152.496 127.75 152.607 128.216 152.831C128.681 153.054 129.072 153.346 129.388 153.705C129.703 154.065 129.943 154.471 130.105 154.924C130.268 155.378 130.35 155.831 130.35 156.284C130.35 156.809 130.254 157.312 130.062 157.795C129.869 158.277 129.604 158.703 129.266 159.072C128.927 159.441 128.532 159.736 128.079 159.956C127.627 160.176 127.137 160.286 126.609 160.286C125.991 160.286 125.447 160.179 124.979 159.966C124.51 159.752 124.114 159.467 123.792 159.111C123.47 158.755 123.227 158.347 123.064 157.887C122.902 157.427 122.82 156.951 122.82 156.459ZM134.207 162.948C134.207 163.194 134.227 163.464 134.266 163.759C134.305 164.054 134.373 164.327 134.471 164.58C134.568 164.832 134.705 165.045 134.881 165.216C135.057 165.388 135.281 165.474 135.555 165.474C135.796 165.474 135.999 165.407 136.165 165.274C136.331 165.142 136.463 164.972 136.561 164.764C136.658 164.557 136.728 164.329 136.771 164.08C136.813 163.83 136.834 163.589 136.834 163.356C136.834 163.097 136.813 162.818 136.771 162.521C136.728 162.223 136.657 161.947 136.556 161.695C136.455 161.442 136.32 161.232 136.15 161.063C135.981 160.895 135.77 160.811 135.516 160.811C135.262 160.811 135.05 160.887 134.881 161.039C134.712 161.191 134.576 161.376 134.476 161.593C134.375 161.81 134.305 162.041 134.266 162.287C134.227 162.534 134.207 162.754 134.207 162.948ZM131.756 163.239C131.756 162.78 131.84 162.313 132.01 161.841C132.179 161.368 132.425 160.942 132.747 160.563C133.069 160.184 133.47 159.875 133.948 159.636C134.427 159.396 134.959 159.276 135.545 159.276C136.15 159.276 136.686 159.388 137.151 159.611C137.617 159.835 138.007 160.126 138.323 160.486C138.639 160.845 138.878 161.251 139.041 161.705C139.204 162.158 139.285 162.611 139.285 163.065C139.285 163.589 139.189 164.093 138.997 164.575C138.805 165.058 138.54 165.483 138.201 165.852C137.863 166.222 137.467 166.516 137.015 166.736C136.562 166.957 136.072 167.067 135.545 167.067C134.926 167.067 134.383 166.96 133.914 166.746C133.445 166.532 133.05 166.248 132.728 165.891C132.405 165.535 132.163 165.127 132 164.667C131.837 164.208 131.756 163.732 131.756 163.239Z" fill="white"/>
<path fill-rule="evenodd" clip-rule="evenodd" d="M61.086 91.2198C61.086 91.6548 60.998 92.0527 60.822 92.4134C60.646 92.7742 60.406 93.0819 60.102 93.3365C59.798 93.5912 59.446 93.7875 59.046 93.9254C58.646 94.0633 58.2167 94.1323 57.758 94.1323H52.366V82.8324H58.014C58.4087 82.8324 58.766 82.9173 59.086 83.087C59.406 83.2568 59.678 83.477 59.902 83.7475C60.126 84.0181 60.2993 84.3258 60.422 84.6706C60.5447 85.0155 60.606 85.3629 60.606 85.7131C60.606 86.2754 60.4647 86.7953 60.182 87.2728C59.8993 87.7502 59.4967 88.1057 58.974 88.3391C59.6247 88.5301 60.1393 88.8829 60.518 89.3975C60.8967 89.9121 61.086 90.5195 61.086 91.2198ZM59.63 90.9652C59.63 90.7105 59.5847 90.4638 59.494 90.2251C59.4033 89.9864 59.2807 89.7768 59.126 89.5964C58.9713 89.4161 58.7873 89.2728 58.574 89.1667C58.3607 89.0606 58.126 89.0076 57.87 89.0076H53.806V92.8909H57.758C58.0247 92.8909 58.27 92.8379 58.494 92.7318C58.718 92.6257 58.9153 92.4851 59.086 92.31C59.2567 92.1349 59.39 91.9307 59.486 91.6973C59.582 91.4638 59.63 91.2198 59.63 90.9652ZM53.806 84.0737V87.8457H57.422C57.678 87.8457 57.9127 87.7953 58.126 87.6945C58.3393 87.5937 58.5233 87.4584 58.678 87.2886C58.8327 87.1189 58.9553 86.9199 59.046 86.6918C59.1367 86.4637 59.182 86.2223 59.182 85.9677C59.182 85.7024 59.1393 85.4531 59.054 85.2196C58.9687 84.9862 58.854 84.7846 58.71 84.6149C58.566 84.4451 58.39 84.3125 58.182 84.217C57.974 84.1215 57.7527 84.0737 57.518 84.0737H53.806ZM66.194 87.7502H67.634L71.362 82.8324H73.01L68.962 88.2914L73.378 94.1323H71.73L67.794 89.0235H66.194V94.1323H64.754V82.8324H66.194V87.7502ZM78.902 85.9836C78.774 87.4479 78.614 88.6998 78.422 89.7397C78.23 90.7795 77.9793 91.6336 77.67 92.302C77.3607 92.9705 76.99 93.4612 76.558 93.7742C76.126 94.0872 75.606 94.2437 74.998 94.2437L74.742 92.8591C74.966 92.8485 75.1793 92.8087 75.382 92.7397C75.5847 92.6707 75.7713 92.5461 75.942 92.3657C76.1127 92.1853 76.2727 91.9333 76.422 91.6097C76.5713 91.2861 76.71 90.8696 76.838 90.3604C76.966 89.8511 77.0807 89.233 77.182 88.5062C77.2833 87.7794 77.3767 86.9173 77.462 85.92L77.718 82.8324H83.734V94.1323H82.294V84.1056H79.062L78.902 85.9836ZM96.346 94.2119C95.642 94.2119 94.9967 94.0872 94.41 93.8378C93.8233 93.5885 93.3113 93.2384 92.874 92.7874C92.4367 92.3365 92.0847 91.7954 91.818 91.1641C91.5513 90.5328 91.3913 89.8351 91.338 89.0712H89.29V94.1323H87.85V82.8324H89.29V87.798H91.354C91.418 87.0234 91.5887 86.3258 91.866 85.7051C92.1433 85.0844 92.506 84.5565 92.954 84.1215C93.402 83.6865 93.9167 83.3496 94.498 83.1109C95.0793 82.8722 95.706 82.7528 96.378 82.7528C97.146 82.7528 97.8473 82.896 98.482 83.1825C99.1167 83.469 99.6607 83.8695 100.114 84.3841C100.567 84.8987 100.919 85.5062 101.17 86.2064C101.421 86.9067 101.546 87.6706 101.546 88.4982C101.546 89.3683 101.415 90.1561 101.154 90.8617C100.893 91.5673 100.53 92.1667 100.066 92.6601C99.602 93.1535 99.0527 93.5355 98.418 93.806C97.7833 94.0766 97.0927 94.2119 96.346 94.2119ZM92.778 88.4823C92.778 89.1826 92.8633 89.806 93.034 90.3524C93.2047 90.8988 93.4473 91.363 93.762 91.745C94.0767 92.1269 94.4526 92.4187 94.89 92.6203C95.3273 92.8219 95.818 92.9227 96.362 92.9227C96.938 92.9227 97.458 92.8166 97.922 92.6044C98.386 92.3922 98.778 92.0898 99.098 91.6972C99.418 91.3047 99.6633 90.8378 99.834 90.2967C100.005 89.7556 100.09 89.1508 100.09 88.4823C100.09 87.7821 99.9993 87.1587 99.818 86.6123C99.6366 86.0658 99.3806 85.6043 99.05 85.2276C98.7193 84.851 98.3273 84.5618 97.874 84.3603C97.4206 84.1587 96.9167 84.0579 96.362 84.0579C95.8073 84.0579 95.3087 84.164 94.866 84.3762C94.4233 84.5884 94.0473 84.8855 93.738 85.2674C93.4286 85.6494 93.1913 86.1136 93.026 86.66C92.8607 87.2065 92.778 87.8139 92.778 88.4823ZM110.51 82.8324H111.966V94.1323H110.51V89.3577C110.329 89.4214 110.147 89.4797 109.966 89.5328C109.785 89.5858 109.587 89.6309 109.374 89.668C109.161 89.7052 108.923 89.7317 108.662 89.7476C108.401 89.7635 108.105 89.7715 107.774 89.7715C107.113 89.7715 106.553 89.6733 106.094 89.4771C105.635 89.2808 105.267 89.0076 104.99 88.6574C104.713 88.3073 104.513 87.8961 104.39 87.424C104.267 86.9518 104.206 86.4399 104.206 85.8881V82.8324H105.662V85.6176C105.662 86.1481 105.699 86.5964 105.774 86.9624C105.849 87.3285 105.979 87.6229 106.166 87.8457C106.353 88.0685 106.598 88.2304 106.902 88.3311C107.206 88.4319 107.587 88.4823 108.046 88.4823C108.654 88.4823 109.163 88.4266 109.574 88.3152C109.985 88.2038 110.297 88.0632 110.51 87.8935V82.8324ZM123.762 92.8591V94.1323H116.05V82.8324H123.618V84.1056H117.49V87.7662H122.818V88.9598H117.49V92.8591H123.762ZM136.182 82.8324V94.1323H134.742V88.9916H128.486V94.1323H127.046V82.8324H128.486V87.7184H134.742V82.8324H136.182ZM143.69 82.8324H144.906L149.546 94.1323H148.01L146.666 90.8219H141.898L140.57 94.1323H139.034L143.69 82.8324ZM146.346 89.7078L144.298 84.4875L142.186 89.7078H146.346Z" fill="#3A3A3A" fill-opacity="0.86931"/>
</svg>
