<svg width="56" height="56" viewBox="0 0 56 56" fill="none" xmlns="http://www.w3.org/2000/svg">
<path fill-rule="evenodd" clip-rule="evenodd" d="M50.7586 2.95674C43.811 -3.14236 34.156 2.25464 29.0162 6.01644C28.4074 6.46584 27.5882 6.46584 26.9751 6.01364C21.8403 2.25534 12.1882 -3.13886 5.2356 2.95744C0.36934 7.23234 -0.626454 13.9901 2.43129 21.9862C3.47231 24.712 4.90749 27.4791 6.82011 30.4485C7.23652 31.0925 7.68021 31.705 8.06288 32.2286C9.24032 33.8372 11.1544 34.7976 13.1833 34.7976H18.2333C18.6261 45.2227 22.0672 55.7976 28.0039 55.7976C33.9363 55.7976 37.3746 45.2227 37.768 34.7976H42.8109C44.8398 34.7976 46.7539 33.8372 47.9313 32.2286C48.4037 31.5839 48.7964 31.0337 49.1741 30.4485C51.0702 27.5176 52.5082 24.7505 53.5701 21.9869C56.6292 13.9894 55.6306 7.23094 50.7586 2.95674Z" fill="white"/>
<path fill-rule="evenodd" clip-rule="evenodd" d="M50.8801 21.0062C49.8886 23.5878 48.536 26.1869 46.7454 28.9547C46.4029 29.4839 46.0382 29.9956 45.5938 30.6018C44.9541 31.4761 43.9138 31.9976 42.811 31.9976H13.1842C12.0814 31.9976 11.0411 31.4761 10.4014 30.6018C10.0417 30.1097 9.62602 29.5364 9.25125 28.9568C7.44489 26.1533 6.09515 23.5535 5.12304 21.0083C3.60674 17.0435 1.85494 9.69631 7.15699 5.03851C8.80756 3.59091 10.7187 3.02251 12.7046 3.02251C17.2435 3.02251 22.1686 5.99751 25.2471 8.25011C26.8676 9.44431 29.1298 9.44501 30.7445 8.25291C35.1749 5.00981 43.417 0.27991 48.8375 5.03781C54.1482 9.69631 52.3964 17.0428 50.8801 21.0062Z" fill="white"/>
<path d="M20.8224 14.35C20.8224 12.2237 18.8938 10.5 16.5147 10.5C14.1357 10.5 12.207 12.2237 12.207 14.35" stroke="#3C362A" stroke-width="2" stroke-linecap="round"/>
<path d="M35.1793 20.9999C35.1793 23.7061 31.9649 25.8999 27.9998 25.8999C24.0347 25.8999 20.8203 23.7061 20.8203 20.9999" stroke="#3C362A" stroke-width="2.5" stroke-linecap="round"/>
<path d="M43.7951 14.35C43.7951 12.2237 41.8665 10.5 39.4874 10.5C37.1083 10.5 35.1797 12.2237 35.1797 14.35" stroke="#3C362A" stroke-width="2" stroke-linecap="round"/>
<mask id="path-6-inside-1" fill="white">
<path fill-rule="evenodd" clip-rule="evenodd" d="M50.7572 2.95676C43.8118 -3.14236 34.1556 2.25461 29.015 6.01633C28.4056 6.46579 27.5892 6.46579 26.9759 6.01365C21.8392 2.25534 12.1868 -3.13894 5.23371 2.95749C0.370433 7.2324 -0.625661 13.9902 2.42903 21.9863C2.78059 22.9033 3.17512 23.8252 3.61653 24.7578C4.15559 25.8894 4.76106 27.0371 5.44465 28.2114L5.93684 29.0381C6.222 29.5034 6.51496 29.9734 6.81965 30.4485C7.23762 31.0925 7.67903 31.7051 8.06184 32.2285C9.24153 33.8371 11.1556 34.7976 13.1829 34.7976H18.2337C18.6243 45.2226 22.0657 55.7976 28.0032 55.7976C33.9368 55.7976 37.3743 45.2226 37.7689 34.7976H42.8118C44.8392 34.7976 46.7532 33.8371 47.929 32.2285C48.1634 31.9101 48.3782 31.615 48.5814 31.3271C48.7884 31.032 48.9837 30.7446 49.1751 30.4485C51.0697 27.5176 52.5072 24.7505 53.5697 21.9868C56.6282 13.9895 55.6282 7.23093 50.7572 2.95676ZM28.0072 52.9978C26.1829 52.9978 24.2103 50.3327 22.8353 45.8745L31.597 49.7573C30.4759 51.833 29.2103 52.9978 28.0072 52.9978ZM22.3509 44.1216L32.2103 48.4909C32.9056 46.8984 33.5189 44.9287 33.9876 42.6523L21.2337 37.0005C21.4407 39.6367 21.8314 42.0327 22.3509 44.1216ZM34.2532 41.2334L21.1282 35.4177L21.1048 34.7976H34.8939C34.8079 37.1111 34.5853 39.2705 34.2532 41.2334ZM46.7454 28.9546C48.5345 26.187 49.8861 23.5879 50.8782 21.0061C52.3939 17.0427 54.1478 9.69626 48.8353 5.03782C43.4173 0.280003 35.1751 5.00974 30.7454 8.2529C29.1282 9.44504 26.8665 9.44431 25.2454 8.24997C22.1673 5.99753 17.2415 3.02243 12.7025 3.02243C10.7181 3.02243 8.80793 3.59079 7.15559 5.03855C1.85481 9.69626 3.60481 17.0434 5.12043 21.0083C5.57746 22.2048 6.12043 23.4135 6.75325 24.6499C7.46418 26.0432 8.29231 27.4714 9.24934 28.9568C9.62434 29.5364 10.0423 30.1096 10.4017 30.6018C10.6556 30.9504 10.9759 31.2431 11.3353 31.469C11.8782 31.8091 12.5189 31.9975 13.1829 31.9975H42.8118C43.9134 31.9975 44.9525 31.476 45.5931 30.6018C45.8587 30.2422 46.0931 29.9155 46.3118 29.5989L46.7454 28.9546Z"/>
</mask>
<path fill-rule="evenodd" clip-rule="evenodd" d="M50.7572 2.95676C43.8118 -3.14236 34.1556 2.25461 29.015 6.01633C28.4056 6.46579 27.5892 6.46579 26.9759 6.01365C21.8392 2.25534 12.1868 -3.13894 5.23371 2.95749C0.370433 7.2324 -0.625661 13.9902 2.42903 21.9863C2.78059 22.9033 3.17512 23.8252 3.61653 24.7578C4.15559 25.8894 4.76106 27.0371 5.44465 28.2114L5.93684 29.0381C6.222 29.5034 6.51496 29.9734 6.81965 30.4485C7.23762 31.0925 7.67903 31.7051 8.06184 32.2285C9.24153 33.8371 11.1556 34.7976 13.1829 34.7976H18.2337C18.6243 45.2226 22.0657 55.7976 28.0032 55.7976C33.9368 55.7976 37.3743 45.2226 37.7689 34.7976H42.8118C44.8392 34.7976 46.7532 33.8371 47.929 32.2285C48.1634 31.9101 48.3782 31.615 48.5814 31.3271C48.7884 31.032 48.9837 30.7446 49.1751 30.4485C51.0697 27.5176 52.5072 24.7505 53.5697 21.9868C56.6282 13.9895 55.6282 7.23093 50.7572 2.95676ZM28.0072 52.9978C26.1829 52.9978 24.2103 50.3327 22.8353 45.8745L31.597 49.7573C30.4759 51.833 29.2103 52.9978 28.0072 52.9978ZM22.3509 44.1216L32.2103 48.4909C32.9056 46.8984 33.5189 44.9287 33.9876 42.6523L21.2337 37.0005C21.4407 39.6367 21.8314 42.0327 22.3509 44.1216ZM34.2532 41.2334L21.1282 35.4177L21.1048 34.7976H34.8939C34.8079 37.1111 34.5853 39.2705 34.2532 41.2334ZM46.7454 28.9546C48.5345 26.187 49.8861 23.5879 50.8782 21.0061C52.3939 17.0427 54.1478 9.69626 48.8353 5.03782C43.4173 0.280003 35.1751 5.00974 30.7454 8.2529C29.1282 9.44504 26.8665 9.44431 25.2454 8.24997C22.1673 5.99753 17.2415 3.02243 12.7025 3.02243C10.7181 3.02243 8.80793 3.59079 7.15559 5.03855C1.85481 9.69626 3.60481 17.0434 5.12043 21.0083C5.57746 22.2048 6.12043 23.4135 6.75325 24.6499C7.46418 26.0432 8.29231 27.4714 9.24934 28.9568C9.62434 29.5364 10.0423 30.1096 10.4017 30.6018C10.6556 30.9504 10.9759 31.2431 11.3353 31.469C11.8782 31.8091 12.5189 31.9975 13.1829 31.9975H42.8118C43.9134 31.9975 44.9525 31.476 45.5931 30.6018C45.8587 30.2422 46.0931 29.9155 46.3118 29.5989L46.7454 28.9546Z" fill="black"/>
<path d="M29.015 6.01633L28.7197 5.61282L28.7182 5.61395L29.015 6.01633ZM50.7572 2.95676L50.4272 3.33246L50.4274 3.33259L50.7572 2.95676ZM26.9759 6.01365L27.2726 5.6112L27.2711 5.61012L26.9759 6.01365ZM5.23371 2.95749L4.90408 2.58154L4.90361 2.58195L5.23371 2.95749ZM2.42903 21.9863L1.96195 22.1647L1.96216 22.1653L2.42903 21.9863ZM3.61653 24.7578L3.16459 24.9717L3.16513 24.9728L3.61653 24.7578ZM5.44465 28.2114L5.01251 28.463L5.01503 28.4672L5.44465 28.2114ZM5.93684 29.0381L5.50719 29.2939L5.51052 29.2993L5.93684 29.0381ZM6.81965 30.4485L6.39876 30.7184L6.40023 30.7207L6.81965 30.4485ZM8.06184 32.2285L7.65825 32.5236L7.65864 32.5242L8.06184 32.2285ZM18.2337 34.7976L18.7334 34.7789L18.7153 34.2976H18.2337V34.7976ZM37.7689 34.7976V34.2976H37.2874L37.2692 34.7787L37.7689 34.7976ZM47.929 32.2285L47.5264 31.9321L47.5254 31.9334L47.929 32.2285ZM48.5814 31.3271L48.9899 31.6154L48.9907 31.6142L48.5814 31.3271ZM49.1751 30.4485L48.7552 30.177L48.7552 30.177L49.1751 30.4485ZM53.5697 21.9868L54.0364 22.1662L54.0367 22.1654L53.5697 21.9868ZM22.8353 45.8745L23.0379 45.4174L22.0338 44.9724L22.3575 46.0218L22.8353 45.8745ZM31.597 49.7573L32.0369 49.9949L32.2939 49.5192L31.7996 49.3002L31.597 49.7573ZM32.2103 48.4909L32.0077 48.9481L32.4673 49.1518L32.6685 48.691L32.2103 48.4909ZM22.3509 44.1216L21.8657 44.2422L21.9247 44.4796L22.1483 44.5787L22.3509 44.1216ZM33.9876 42.6523L34.4773 42.7532L34.5586 42.3585L34.1902 42.1952L33.9876 42.6523ZM21.2337 37.0005L21.4363 36.5433L20.6696 36.2036L20.7352 37.0396L21.2337 37.0005ZM21.1282 35.4177L20.6286 35.4366L20.6404 35.7484L20.9257 35.8748L21.1282 35.4177ZM34.2532 41.2334L34.0507 41.6905L34.6389 41.9512L34.7462 41.3168L34.2532 41.2334ZM21.1048 34.7976V34.2976H20.5856L20.6052 34.8165L21.1048 34.7976ZM34.8939 34.7976L35.3935 34.8161L35.4128 34.2976H34.8939V34.7976ZM50.8782 21.0061L51.345 21.1854L51.3453 21.1847L50.8782 21.0061ZM46.7454 28.9546L47.1603 29.2338L47.1653 29.226L46.7454 28.9546ZM48.8353 5.03782L48.5054 5.41352L48.5056 5.41375L48.8353 5.03782ZM30.7454 8.2529L30.4501 7.84947L30.4487 7.85044L30.7454 8.2529ZM25.2454 8.24997L25.542 7.84743L25.5407 7.84647L25.2454 8.24997ZM7.15559 5.03855L6.82609 4.66248L6.82555 4.66295L7.15559 5.03855ZM5.12043 21.0083L5.58752 20.8299L5.58747 20.8297L5.12043 21.0083ZM6.75325 24.6499L7.19862 24.4226L7.19833 24.4221L6.75325 24.6499ZM9.24934 28.9568L8.82903 29.2276L8.82955 29.2284L9.24934 28.9568ZM10.4017 30.6018L10.8059 30.3074L10.8055 30.3069L10.4017 30.6018ZM11.3353 31.469L11.0692 31.8923L11.0699 31.8927L11.3353 31.469ZM45.5931 30.6018L45.1909 30.3047L45.1898 30.3062L45.5931 30.6018ZM46.3118 29.5989L46.7233 29.8831L46.7267 29.878L46.3118 29.5989ZM29.3102 6.41984C31.8608 4.5534 35.5017 2.30513 39.3393 1.27153C43.1658 0.240956 47.1226 0.430462 50.4272 3.33246L51.0871 2.58106C47.4464 -0.616061 43.1025 -0.77763 39.0793 0.305935C35.0673 1.38647 31.3097 3.71755 28.7197 5.61283L29.3102 6.41984ZM26.6792 6.41609C27.4682 6.99782 28.5253 6.99882 29.3118 6.41872L28.7182 5.61395C28.2859 5.93277 27.7101 5.93377 27.2726 5.6112L26.6792 6.41609ZM5.56335 3.33345C8.87201 0.432446 12.8301 0.243047 16.656 1.27286C20.4932 2.30571 24.132 4.55245 26.6807 6.41717L27.2711 5.61012C24.6831 3.71654 20.9274 1.38699 16.9159 0.307228C12.8932 -0.775571 8.54855 -0.613895 4.90408 2.58154L5.56335 3.33345ZM2.8961 21.8079C-0.113742 13.9292 0.911869 7.42217 5.56382 3.33303L4.90361 2.58195C-0.171002 7.04262 -1.13758 14.0513 1.96195 22.1647L2.8961 21.8079ZM4.06846 24.5439C3.6323 23.6223 3.24278 22.7121 2.89589 21.8073L1.96216 22.1653C2.3184 23.0945 2.71795 24.028 3.16459 24.9717L4.06846 24.5439ZM5.87677 27.9599C5.19989 26.7971 4.60089 25.6615 4.06792 24.5428L3.16513 24.9728C3.71029 26.1172 4.32222 27.2771 5.01253 28.4629L5.87677 27.9599ZM6.36646 28.7823L5.87427 27.9556L5.01503 28.4672L5.50722 29.2938L6.36646 28.7823ZM7.24054 30.1785C6.9381 29.7069 6.64698 29.24 6.36316 28.7768L5.51052 29.2993C5.79701 29.7668 6.09183 30.2398 6.39877 30.7184L7.24054 30.1785ZM8.46542 31.9333C8.08366 31.4113 7.64908 30.8081 7.23907 30.1763L6.40023 30.7207C6.82616 31.377 7.2744 31.9988 7.65825 32.5236L8.46542 31.9333ZM13.1829 34.2976C11.3118 34.2976 9.54877 33.4106 8.46504 31.9328L7.65864 32.5242C8.93428 34.2637 10.9993 35.2976 13.1829 35.2976V34.2976ZM18.2337 34.2976H13.1829V35.2976H18.2337V34.2976ZM28.0032 55.2976C25.3679 55.2976 23.1416 52.9382 21.4997 49.014C19.8781 45.1385 18.9272 39.9517 18.7334 34.7789L17.7341 34.8163C17.9309 40.0685 18.8959 45.3818 20.5771 49.4C22.238 53.3695 24.7011 56.2976 28.0032 56.2976V55.2976ZM37.2692 34.7787C37.0735 39.9516 36.1225 45.1385 34.5019 49.0141C32.8609 52.9385 30.6364 55.2976 28.0032 55.2976V56.2976C31.3037 56.2976 33.7647 53.3692 35.4245 49.3999C37.1047 45.3817 38.0698 40.0686 38.2685 34.8165L37.2692 34.7787ZM42.8118 34.2976H37.7689V35.2976H42.8118V34.2976ZM47.5254 31.9334C46.4457 33.4105 44.6831 34.2976 42.8118 34.2976V35.2976C44.9953 35.2976 47.0608 34.2637 48.3327 32.5235L47.5254 31.9334ZM48.1728 31.0388C47.9725 31.3227 47.7599 31.6148 47.5264 31.9321L48.3317 32.5249C48.5669 32.2054 48.784 31.9072 48.9899 31.6154L48.1728 31.0388ZM48.7552 30.177C48.568 30.4667 48.3763 30.7487 48.172 31.04L48.9907 31.6142C49.2005 31.3152 49.3995 31.0225 49.595 30.7199L48.7552 30.177ZM53.103 21.8074C52.0548 24.5337 50.6343 27.2701 48.7552 30.177L49.595 30.7199C51.505 27.765 52.9595 24.9672 54.0364 22.1662L53.103 21.8074ZM50.4274 3.33259C55.0869 7.42109 56.1162 13.9286 53.1026 21.8082L54.0367 22.1654C57.1403 14.0504 56.1696 7.04077 51.0869 2.58093L50.4274 3.33259ZM22.3575 46.0218C23.0547 48.2824 23.9122 50.1194 24.8489 51.4028C25.7694 52.664 26.8487 53.4978 28.0072 53.4978V52.4978C27.3414 52.4978 26.5222 51.9991 25.6566 50.8132C24.8072 49.6495 23.9909 47.9248 23.3131 45.7271L22.3575 46.0218ZM31.7996 49.3002L23.0379 45.4174L22.6327 46.3316L31.3944 50.2144L31.7996 49.3002ZM28.0072 53.4978C28.776 53.4978 29.5077 53.126 30.1688 52.5262C30.8315 51.925 31.4601 51.0629 32.0369 49.9949L31.1571 49.5197C30.6128 50.5273 30.0481 51.2855 29.4969 51.7856C28.9441 52.2871 28.4415 52.4978 28.0072 52.4978V53.4978ZM32.4129 48.0338L22.5535 43.6644L22.1483 44.5787L32.0077 48.9481L32.4129 48.0338ZM33.4979 42.5515C33.0347 44.8008 32.4308 46.7362 31.752 48.2909L32.6685 48.691C33.3804 47.0606 34.003 45.0565 34.4773 42.7532L33.4979 42.5515ZM21.0311 37.4576L33.785 43.1094L34.1902 42.1952L21.4363 36.5433L21.0311 37.4576ZM22.8361 44.0009C22.3239 41.9413 21.9373 39.5727 21.7322 36.9613L20.7352 37.0396C20.9442 39.7006 21.3389 42.1241 21.8657 44.2422L22.8361 44.0009ZM20.9257 35.8748L34.0507 41.6905L34.4558 40.7762L21.3308 34.9606L20.9257 35.8748ZM20.6052 34.8165L20.6286 35.4366L21.6279 35.3988L21.6045 34.7787L20.6052 34.8165ZM34.8939 34.2976H21.1048V35.2976H34.8939V34.2976ZM34.7462 41.3168C35.0821 39.331 35.3068 37.1498 35.3935 34.8161L34.3942 34.779C34.309 37.0723 34.0884 39.21 33.7603 41.15L34.7462 41.3168ZM50.4115 20.8267C49.4338 23.3708 48.0993 25.9392 46.3255 28.6831L47.1653 29.226C48.9697 26.4348 50.3383 23.8049 51.345 21.1854L50.4115 20.8267ZM48.5056 5.41375C51.0278 7.62541 51.8825 10.4752 51.9173 13.2888C51.9524 16.114 51.1582 18.8742 50.4112 20.8275L51.3453 21.1847C52.1139 19.1746 52.9545 16.2799 52.9173 13.2764C52.8799 10.2614 51.9553 7.10867 49.1649 4.66188L48.5056 5.41375ZM31.0408 8.65633C33.2384 7.04735 36.3527 5.09265 39.5642 4.12368C42.7742 3.15515 45.9805 3.19632 48.5054 5.41352L49.1652 4.66212C46.2721 2.12149 42.6483 2.14863 39.2753 3.16631C35.9038 4.18355 32.6821 6.21529 30.4501 7.84947L31.0408 8.65633ZM24.9489 8.65252C26.746 9.97653 29.2482 9.97782 31.0421 8.65537L30.4487 7.85044C29.0083 8.91226 26.9871 8.91209 25.542 7.84743L24.9489 8.65252ZM12.7025 3.52243C14.8695 3.52243 17.1597 4.23476 19.3093 5.24413C21.4542 6.25129 23.4268 7.53874 24.9502 8.65348L25.5407 7.84647C23.9859 6.70876 21.9566 5.38245 19.7343 4.33895C17.5167 3.29766 15.0745 2.52243 12.7025 2.52243V3.52243ZM7.48509 5.41462C9.03275 4.05859 10.8201 3.52243 12.7025 3.52243V2.52243C10.6161 2.52243 8.58312 3.123 6.82609 4.66248L7.48509 5.41462ZM5.58747 20.8297C4.84056 18.8758 4.04727 16.1149 4.08182 13.2894C4.11624 10.4751 4.96917 7.62532 7.48562 5.41415L6.82555 4.66295C4.04123 7.10949 3.11877 10.2621 3.0819 13.2771C3.04516 16.2808 3.88468 19.1759 4.65339 21.1868L5.58747 20.8297ZM7.19833 24.4221C6.57289 23.2001 6.03749 22.0079 5.58752 20.8299L4.65335 21.1867C5.11744 22.4017 5.66797 23.627 6.30816 24.8777L7.19833 24.4221ZM9.66965 28.6859C8.7205 27.2128 7.90099 25.7992 7.19862 24.4226L6.30787 24.8771C7.02737 26.2872 7.86412 27.73 8.82903 29.2276L9.66965 28.6859ZM10.8055 30.3069C10.4451 29.8133 10.0353 29.2511 9.66913 28.6852L8.82955 29.2284C9.21338 29.8216 9.63955 30.4059 9.99787 30.8966L10.8055 30.3069ZM11.6013 31.0456C11.293 30.8519 11.0205 30.6021 10.8059 30.3074L9.99751 30.8961C10.2907 31.2987 10.6588 31.6344 11.0692 31.8923L11.6013 31.0456ZM13.1829 31.4975C12.6133 31.4975 12.0646 31.3358 11.6007 31.0452L11.0699 31.8927C11.6919 32.2823 12.4245 32.4975 13.1829 32.4975V31.4975ZM42.8118 31.4975H13.1829V32.4975H42.8118V31.4975ZM45.1898 30.3062C44.6451 31.0495 43.7571 31.4975 42.8118 31.4975V32.4975C44.0697 32.4975 45.2598 31.9026 45.9964 30.8973L45.1898 30.3062ZM45.9005 29.3147C45.6853 29.6261 45.4541 29.9484 45.1909 30.3047L45.9953 30.8988C46.2634 30.5359 46.5009 30.2049 46.7232 29.883L45.9005 29.3147ZM46.3306 28.6754L45.897 29.3197L46.7267 29.878L47.1602 29.2337L46.3306 28.6754Z" fill="#F6F7F8" mask="url(#path-6-inside-1)"/>
</svg>
