<svg width="60" height="60" viewBox="0 0 60 60" fill="none" xmlns="http://www.w3.org/2000/svg">
<path fill-rule="evenodd" clip-rule="evenodd" d="M30 58C45.464 58 58 45.464 58 30C58 14.536 45.464 2 30 2C14.536 2 2 14.536 2 30C2 45.464 14.536 58 30 58Z" fill="white"/>
<path fill-rule="evenodd" clip-rule="evenodd" d="M0.6875 30C0.6875 46.189 13.8125 59.3125 30 59.3125C46.1875 59.3125 59.3125 46.189 59.3125 30C59.3125 13.811 46.1875 0.6875 30 0.6875C13.8125 0.6875 0.6875 13.811 0.6875 30ZM56.6875 30C56.6875 44.739 44.7383 56.6875 30 56.6875C15.2617 56.6875 3.3125 44.739 3.3125 30C3.3125 15.261 15.2617 3.3125 30 3.3125C44.7383 3.3125 56.6875 15.261 56.6875 30Z" fill="black"/>
<path d="M47.3346 38.1782C47.0438 42.3345 45.2031 45.3724 42.3999 47.438C39.299 49.7229 34.9367 50.875 30 50.875C25.0633 50.875 20.701 49.7229 17.6001 47.438C14.7648 45.3488 12.9142 42.265 12.6561 38.0352C13.9523 38.1208 15.2793 38.3526 16.8138 38.6207C22.105 39.5451 29.8638 40.9007 47.3346 38.1782Z" fill="white" stroke="black" stroke-width="2"/>
<path d="M12.5 37.8965C14.0035 44.0954 24.283 44.6988 30.0714 44.7383C35.8598 44.7779 46.1025 43.7365 47.5 38.3854" stroke="black"/>
<path d="M19.2305 39.6555C19.2305 43.944 19.438 45.5697 19.853 49.2192" stroke="black"/>
<path d="M41.375 39.625C41.375 43.9135 41.1675 45.5392 40.7525 49.1887" stroke="black"/>
<path d="M25.7109 39.7161C25.7109 43.2705 25.7109 50.6647 26.9559 50.6647" stroke="black"/>
<path d="M33.957 39.7161C33.957 43.2705 33.957 50.6647 32.712 50.6647" stroke="black"/>
<path d="M16 18.625L25.625 23.4375L16 28.25" stroke="black" stroke-width="2" stroke-linecap="round" stroke-linejoin="round"/>
<path d="M43.125 18.625L33.5 23.4375L43.125 28.25" stroke="black" stroke-width="2" stroke-linecap="round" stroke-linejoin="round"/>
</svg>
