<svg width="57" height="69" viewBox="0 0 57 69" fill="none" xmlns="http://www.w3.org/2000/svg">
<path fill-rule="evenodd" clip-rule="evenodd" d="M51.9491 39.9963C50.9404 42.7224 49.5551 45.4787 47.7146 48.4227C47.2781 49.1211 46.7906 49.8096 46.3189 50.4762C44.9546 52.4041 43.5446 54.397 42.9881 57.0452C42.7196 58.3238 42.5201 59.6237 42.3266 60.8805C42.2306 61.5084 42.1339 62.1357 42.0289 62.7591C41.7814 64.233 40.6759 64.9745 39.7226 65.1765C38.7664 65.3786 37.4531 65.1501 36.6341 63.8963L31.8881 56.6298C31.1351 55.4767 29.8684 54.7882 28.4989 54.7882C27.1294 54.7882 25.8626 55.4767 25.1096 56.6298L20.3636 63.8963C19.5446 65.1501 18.2291 65.3786 17.2751 65.1765C16.3226 64.9745 15.2164 64.233 14.9689 62.7591C14.8639 62.1349 14.7671 61.5062 14.6711 60.8774C14.4784 59.6214 14.2789 58.3231 14.0104 57.0459C13.4539 54.397 12.0439 52.4041 10.6796 50.477C10.2079 49.8104 9.72039 49.1211 9.28389 48.4235C7.44414 45.4803 6.05889 42.7239 5.04939 39.997C3.49389 35.7925 1.69689 28.0016 7.13739 23.0617C8.82939 21.5257 10.7876 20.9219 12.8231 20.9219C17.4754 20.9219 22.5244 24.0793 25.6819 26.4732C27.3656 27.7504 29.6299 27.7504 31.3151 26.4732C35.8549 23.0322 44.3014 18.0127 49.8596 23.0617C55.3024 28.0001 53.5046 35.7918 51.9491 39.9963Z" fill="white"/>
<mask id="path-2-inside-1" fill="white">
<path fill-rule="evenodd" clip-rule="evenodd" d="M29.7854 0.11792H26.8714V9.6687H29.7854V0.11792ZM50.0511 5.90967L52.3792 7.68628L46.7073 15.3146L44.3792 13.5378L50.0511 5.90967ZM12.0198 14.1357L7.0042 6.00427L4.54326 7.56274L9.55889 15.6942L12.0198 14.1357ZM51.8284 20.8538C44.7034 14.3824 34.8089 20.1093 29.5472 24.099C28.9222 24.5741 28.0784 24.5741 27.4534 24.099C22.1878 20.1101 12.2933 14.384 5.16826 20.8538C0.176075 25.3867 -0.843457 32.5533 2.29326 41.0343C2.8167 42.4454 3.42998 43.8601 4.14482 45.2972C4.91045 46.8339 5.78936 48.396 6.79717 50.0063L7.03154 50.3737C7.12139 50.519 7.21514 50.6628 7.31279 50.8053C7.58623 51.2139 7.86357 51.6108 8.13701 52L8.22686 52.124L8.28545 52.2013L8.33232 52.2625C8.55107 52.5708 8.76592 52.8763 8.97295 53.1818C9.1917 53.5012 9.40264 53.8204 9.60576 54.1423C10.2972 55.2434 10.8636 56.3763 11.1331 57.661C11.3831 58.8588 11.5784 60.1155 11.762 61.3314C11.8636 61.9738 11.9612 62.6161 12.0667 63.2546C12.4808 65.7175 14.2425 67.5674 16.6683 68.0819C19.0628 68.5927 21.4769 67.5886 22.8206 65.5298L27.5667 58.2633C27.8675 57.8063 28.3206 57.7571 28.5003 57.7571C28.68 57.7571 29.1331 57.807 29.43 58.2633L34.1761 65.5298C35.2894 67.233 37.1331 68.212 39.094 68.212C39.2386 68.212 39.3831 68.2067 39.5315 68.1959L39.8479 68.1635C40.0081 68.1429 40.1683 68.1158 40.3284 68.0819C42.7542 67.5674 44.5198 65.7167 44.9339 63.2546C45.0394 62.6168 45.137 61.976 45.2347 61.3344C45.4222 60.1178 45.6175 58.8595 45.8675 57.661C46.2972 55.6182 47.4729 53.9581 48.7151 52.2013C49.2112 51.5006 49.7229 50.7765 50.2034 50.0063C52.1565 46.8883 53.6253 43.9534 54.7073 41.0343C57.844 32.5533 56.8245 25.3867 51.8284 20.8538ZM51.9495 39.9963C50.9417 42.7224 49.555 45.4788 47.7151 48.4227C47.3089 49.0742 46.8519 49.717 46.4144 50.3416L46.3206 50.4762C44.9534 52.4041 43.5433 54.397 42.9886 57.0452C42.719 58.3239 42.5198 59.6237 42.3284 60.8805C42.2308 61.5084 42.1331 62.1357 42.0276 62.7592C41.7815 64.233 40.6761 64.9745 39.7229 65.1765C38.7659 65.3785 37.4534 65.15 36.6331 63.8964L31.887 56.6298C31.137 55.4767 29.8675 54.7882 28.5003 54.7882C27.1292 54.7882 25.8636 55.4767 25.1097 56.6298L20.3636 63.8964C19.5433 65.15 18.2308 65.3785 17.2737 65.1765C16.3245 64.9745 15.2151 64.233 14.969 62.7592C14.8636 62.1349 14.7659 61.5062 14.6722 60.8774L14.6487 60.7378C14.5433 60.0599 14.4378 59.3705 14.3206 58.6793C14.2269 58.1343 14.1253 57.5881 14.012 57.0459C13.4534 54.397 12.0433 52.4041 10.68 50.4769C10.2073 49.8104 9.71904 49.1211 9.28545 48.4235C8.48857 47.149 7.77764 45.9097 7.14482 44.6926C6.31279 43.0989 5.62139 41.5432 5.05107 39.9971C3.49248 35.7925 1.69561 28.0016 7.13701 23.0616C8.82842 21.5258 10.7894 20.922 12.8245 20.922C17.4769 20.922 22.5237 24.0793 25.6839 26.4733C27.3675 27.7504 29.6292 27.7504 31.3167 26.4733C35.8558 23.0321 44.3011 18.0127 49.8597 23.0616C55.3011 28.0001 53.5042 35.7917 51.9495 39.9963Z"/>
</mask>
<path fill-rule="evenodd" clip-rule="evenodd" d="M29.7854 0.11792H26.8714V9.6687H29.7854V0.11792ZM50.0511 5.90967L52.3792 7.68628L46.7073 15.3146L44.3792 13.5378L50.0511 5.90967ZM12.0198 14.1357L7.0042 6.00427L4.54326 7.56274L9.55889 15.6942L12.0198 14.1357ZM51.8284 20.8538C44.7034 14.3824 34.8089 20.1093 29.5472 24.099C28.9222 24.5741 28.0784 24.5741 27.4534 24.099C22.1878 20.1101 12.2933 14.384 5.16826 20.8538C0.176075 25.3867 -0.843457 32.5533 2.29326 41.0343C2.8167 42.4454 3.42998 43.8601 4.14482 45.2972C4.91045 46.8339 5.78936 48.396 6.79717 50.0063L7.03154 50.3737C7.12139 50.519 7.21514 50.6628 7.31279 50.8053C7.58623 51.2139 7.86357 51.6108 8.13701 52L8.22686 52.124L8.28545 52.2013L8.33232 52.2625C8.55107 52.5708 8.76592 52.8763 8.97295 53.1818C9.1917 53.5012 9.40264 53.8204 9.60576 54.1423C10.2972 55.2434 10.8636 56.3763 11.1331 57.661C11.3831 58.8588 11.5784 60.1155 11.762 61.3314C11.8636 61.9738 11.9612 62.6161 12.0667 63.2546C12.4808 65.7175 14.2425 67.5674 16.6683 68.0819C19.0628 68.5927 21.4769 67.5886 22.8206 65.5298L27.5667 58.2633C27.8675 57.8063 28.3206 57.7571 28.5003 57.7571C28.68 57.7571 29.1331 57.807 29.43 58.2633L34.1761 65.5298C35.2894 67.233 37.1331 68.212 39.094 68.212C39.2386 68.212 39.3831 68.2067 39.5315 68.1959L39.8479 68.1635C40.0081 68.1429 40.1683 68.1158 40.3284 68.0819C42.7542 67.5674 44.5198 65.7167 44.9339 63.2546C45.0394 62.6168 45.137 61.976 45.2347 61.3344C45.4222 60.1178 45.6175 58.8595 45.8675 57.661C46.2972 55.6182 47.4729 53.9581 48.7151 52.2013C49.2112 51.5006 49.7229 50.7765 50.2034 50.0063C52.1565 46.8883 53.6253 43.9534 54.7073 41.0343C57.844 32.5533 56.8245 25.3867 51.8284 20.8538ZM51.9495 39.9963C50.9417 42.7224 49.555 45.4788 47.7151 48.4227C47.3089 49.0742 46.8519 49.717 46.4144 50.3416L46.3206 50.4762C44.9534 52.4041 43.5433 54.397 42.9886 57.0452C42.719 58.3239 42.5198 59.6237 42.3284 60.8805C42.2308 61.5084 42.1331 62.1357 42.0276 62.7592C41.7815 64.233 40.6761 64.9745 39.7229 65.1765C38.7659 65.3785 37.4534 65.15 36.6331 63.8964L31.887 56.6298C31.137 55.4767 29.8675 54.7882 28.5003 54.7882C27.1292 54.7882 25.8636 55.4767 25.1097 56.6298L20.3636 63.8964C19.5433 65.15 18.2308 65.3785 17.2737 65.1765C16.3245 64.9745 15.2151 64.233 14.969 62.7592C14.8636 62.1349 14.7659 61.5062 14.6722 60.8774L14.6487 60.7378C14.5433 60.0599 14.4378 59.3705 14.3206 58.6793C14.2269 58.1343 14.1253 57.5881 14.012 57.0459C13.4534 54.397 12.0433 52.4041 10.68 50.4769C10.2073 49.8104 9.71904 49.1211 9.28545 48.4235C8.48857 47.149 7.77764 45.9097 7.14482 44.6926C6.31279 43.0989 5.62139 41.5432 5.05107 39.9971C3.49248 35.7925 1.69561 28.0016 7.13701 23.0616C8.82842 21.5258 10.7894 20.922 12.8245 20.922C17.4769 20.922 22.5237 24.0793 25.6839 26.4733C27.3675 27.7504 29.6292 27.7504 31.3167 26.4733C35.8558 23.0321 44.3011 18.0127 49.8597 23.0616C55.3011 28.0001 53.5042 35.7917 51.9495 39.9963Z" fill="black"/>
<path d="M26.8714 0.11792V-0.38208H26.3714V0.11792H26.8714ZM29.7854 0.11792H30.2854V-0.38208H29.7854V0.11792ZM26.8714 9.6687H26.3714V10.1687H26.8714V9.6687ZM29.7854 9.6687V10.1687H30.2854V9.6687H29.7854ZM52.3792 7.68628L52.7804 7.98462L53.0751 7.58835L52.6825 7.28879L52.3792 7.68628ZM50.0511 5.90967L50.3544 5.51218L49.9519 5.20505L49.6498 5.61133L50.0511 5.90967ZM46.7073 15.3146L46.404 15.7121L46.8065 16.0192L47.1086 15.6129L46.7073 15.3146ZM44.3792 13.5378L43.978 13.2395L43.6833 13.6358L44.0759 13.9353L44.3792 13.5378ZM7.0042 6.00427L7.42976 5.74178L7.16414 5.31116L6.73669 5.58185L7.0042 6.00427ZM12.0198 14.1357L12.2873 14.5582L12.7048 14.2938L12.4454 13.8733L12.0198 14.1357ZM4.54326 7.56274L4.27575 7.14033L3.8583 7.40469L4.11771 7.82523L4.54326 7.56274ZM9.55889 15.6942L9.13333 15.9567L9.39895 16.3873L9.8264 16.1166L9.55889 15.6942ZM29.5472 24.099L29.2451 23.7006L29.2446 23.7009L29.5472 24.099ZM51.8284 20.8538L51.4923 21.2239L51.4924 21.2241L51.8284 20.8538ZM27.4534 24.099L27.756 23.7009L27.7553 23.7004L27.4534 24.099ZM5.16826 20.8538L5.50438 21.2239L5.50438 21.2239L5.16826 20.8538ZM2.29326 41.0343L1.82431 41.2077L1.82447 41.2082L2.29326 41.0343ZM4.14482 45.2972L3.69715 45.5199L3.6973 45.5202L4.14482 45.2972ZM6.79717 50.0063L6.37331 50.2716L6.37567 50.2753L6.79717 50.0063ZM7.03154 50.3737L7.45693 50.1108L7.45304 50.1047L7.03154 50.3737ZM7.31279 50.8053L7.72835 50.5272L7.7252 50.5226L7.31279 50.8053ZM8.13701 52L7.72786 52.2875L7.73209 52.2933L8.13701 52ZM8.22686 52.124L7.82184 52.4174L7.82845 52.4261L8.22686 52.124ZM8.28545 52.2013L7.88704 52.5034L7.88861 52.5055L8.28545 52.2013ZM8.33232 52.2625L8.74013 51.9731L8.73478 51.9656L8.72917 51.9583L8.33232 52.2625ZM8.97295 53.1818L8.55907 53.4623L8.5604 53.4643L8.97295 53.1818ZM9.60576 54.1423L10.0292 53.8764L10.0286 53.8755L9.60576 54.1423ZM11.1331 57.661L11.6226 57.5588L11.6225 57.5583L11.1331 57.661ZM11.762 61.3314L11.2676 61.4061L11.2681 61.4095L11.762 61.3314ZM12.0667 63.2546L11.5734 63.3361L11.5736 63.3375L12.0667 63.2546ZM16.6683 68.0819L16.7726 67.5929L16.772 67.5928L16.6683 68.0819ZM22.8206 65.5298L22.402 65.2564L22.4019 65.2565L22.8206 65.5298ZM27.5667 58.2633L27.149 57.9884L27.1481 57.9899L27.5667 58.2633ZM29.43 58.2633L29.0109 58.536L29.0114 58.5367L29.43 58.2633ZM34.1761 65.5298L33.7575 65.8032L33.7575 65.8033L34.1761 65.5298ZM39.5315 68.1959L39.5676 68.6946L39.5751 68.6941L39.5826 68.6933L39.5315 68.1959ZM39.8479 68.1635L39.899 68.661L39.9115 68.6594L39.8479 68.1635ZM40.3284 68.0819L40.4321 68.5711L40.4322 68.571L40.3284 68.0819ZM44.9339 63.2546L45.427 63.3376L45.4272 63.3362L44.9339 63.2546ZM45.2347 61.3344L44.7405 61.2582L44.7404 61.2591L45.2347 61.3344ZM45.8675 57.661L45.3782 57.5581L45.378 57.5589L45.8675 57.661ZM48.7151 52.2013L48.3071 51.9124L48.3069 51.9126L48.7151 52.2013ZM50.2034 50.0063L49.7797 49.7409L49.7792 49.7417L50.2034 50.0063ZM54.7073 41.0343L55.1762 41.2081L55.1763 41.2077L54.7073 41.0343ZM47.7151 48.4227L47.2911 48.1577L47.2909 48.1582L47.7151 48.4227ZM51.9495 39.9963L51.4805 39.8229L51.4805 39.823L51.9495 39.9963ZM46.4144 50.3416L46.0048 50.0547L46.004 50.0558L46.4144 50.3416ZM46.3206 50.4762L46.7285 50.7654L46.7309 50.7619L46.3206 50.4762ZM42.9886 57.0452L43.4778 57.1483L43.478 57.1477L42.9886 57.0452ZM42.3284 60.8805L42.8225 60.9573L42.8227 60.9558L42.3284 60.8805ZM42.0276 62.7592L41.5346 62.6758L41.5345 62.6768L42.0276 62.7592ZM39.7229 65.1765L39.8262 65.6657L39.8266 65.6656L39.7229 65.1765ZM36.6331 63.8964L36.2145 64.1698L36.2147 64.1701L36.6331 63.8964ZM31.887 56.6298L31.4679 56.9024L31.4684 56.9032L31.887 56.6298ZM25.1097 56.6298L24.6912 56.3561L24.691 56.3563L25.1097 56.6298ZM20.3636 63.8964L20.782 64.1701L20.7822 64.1698L20.3636 63.8964ZM17.2737 65.1765L17.1696 65.6656L17.1705 65.6657L17.2737 65.1765ZM14.969 62.7592L15.4622 62.6768L15.4621 62.6759L14.969 62.7592ZM14.6722 60.8774L15.1668 60.8037L15.1653 60.7947L14.6722 60.8774ZM14.6487 60.7378L14.1546 60.8147L14.1556 60.8206L14.6487 60.7378ZM14.3206 58.6793L14.8136 58.5957L14.8134 58.5946L14.3206 58.6793ZM14.012 57.0459L14.5014 56.9436L14.5013 56.9427L14.012 57.0459ZM10.68 50.4769L11.0882 50.1882L11.0878 50.1877L10.68 50.4769ZM9.28545 48.4235L9.71011 48.1595L9.70939 48.1584L9.28545 48.4235ZM7.14482 44.6926L7.58844 44.462L7.58806 44.4612L7.14482 44.6926ZM5.05107 39.9971L5.52018 39.824L5.5199 39.8233L5.05107 39.9971ZM7.13701 23.0616L7.4731 23.4318L7.47314 23.4318L7.13701 23.0616ZM25.6839 26.4733L25.9861 26.0749L25.9858 26.0747L25.6839 26.4733ZM31.3167 26.4733L31.6184 26.872L31.6188 26.8717L31.3167 26.4733ZM49.8597 23.0616L49.5235 23.4318L49.5236 23.4319L49.8597 23.0616ZM26.8714 0.61792H29.7854V-0.38208H26.8714V0.61792ZM27.3714 9.6687V0.11792H26.3714V9.6687H27.3714ZM29.7854 9.1687H26.8714V10.1687H29.7854V9.1687ZM29.2854 0.11792V9.6687H30.2854V0.11792H29.2854ZM52.6825 7.28879L50.3544 5.51218L49.7477 6.30715L52.0759 8.08376L52.6825 7.28879ZM47.1086 15.6129L52.7804 7.98462L51.978 7.38794L46.3061 15.0162L47.1086 15.6129ZM44.0759 13.9353L46.404 15.7121L47.0107 14.9171L44.6825 13.1404L44.0759 13.9353ZM49.6498 5.61133L43.978 13.2395L44.7804 13.8362L50.4523 6.20801L49.6498 5.61133ZM6.57864 6.26676L11.5943 14.3982L12.4454 13.8733L7.42976 5.74178L6.57864 6.26676ZM4.81077 7.98516L7.27171 6.42669L6.73669 5.58185L4.27575 7.14033L4.81077 7.98516ZM9.98444 15.4317L4.96882 7.30025L4.11771 7.82523L9.13333 15.9567L9.98444 15.4317ZM11.7523 13.7133L9.29138 15.2718L9.8264 16.1166L12.2873 14.5582L11.7523 13.7133ZM29.8493 24.4974C32.4608 22.5172 36.1907 20.1317 40.1234 19.0351C44.0422 17.9424 48.0985 18.1415 51.4923 21.2239L52.1646 20.4836C48.4333 17.0947 43.9799 16.9216 39.8548 18.0719C35.7435 19.2183 31.8953 21.6911 29.2451 23.7006L29.8493 24.4974ZM27.1508 24.497C27.9547 25.1081 29.0459 25.1081 29.8497 24.497L29.2446 23.7009C28.7984 24.0401 28.2022 24.0401 27.756 23.7009L27.1508 24.497ZM5.50438 21.2239C8.89812 18.1423 12.9545 17.9434 16.8738 19.036C20.8071 20.1326 24.5379 22.5177 27.1515 24.4976L27.7553 23.7004C25.1033 21.6914 21.2541 19.2191 17.1424 18.0728C13.0168 16.9226 8.5634 17.0955 4.83214 20.4836L5.50438 21.2239ZM2.76222 40.8609C-0.333086 32.4919 0.717363 25.5706 5.50438 21.2239L4.83214 20.4836C-0.365213 25.2028 -1.35383 32.6148 1.82431 41.2077L2.76222 40.8609ZM4.5925 45.0746C3.8852 43.6526 3.27905 42.2542 2.76205 40.8604L1.82447 41.2082C2.35435 42.6367 2.97477 44.0676 3.69715 45.5199L4.5925 45.0746ZM7.22101 49.7411C6.22101 48.1432 5.35015 46.5952 4.59235 45.0743L3.6973 45.5202C4.47075 47.0725 5.35771 48.6488 6.37333 50.2716L7.22101 49.7411ZM7.45304 50.1047L7.21867 49.7374L6.37567 50.2753L6.61004 50.6426L7.45304 50.1047ZM7.7252 50.5226C7.63189 50.3865 7.54246 50.2493 7.45688 50.1108L6.60621 50.6365C6.70031 50.7888 6.79839 50.9392 6.90039 51.088L7.7252 50.5226ZM8.54612 51.7125C8.27293 51.3237 7.99837 50.9307 7.72832 50.5272L6.89727 51.0834C7.17409 51.497 7.45422 51.8979 7.7279 52.2875L8.54612 51.7125ZM8.63177 51.8307L8.54193 51.7067L7.73209 52.2933L7.82194 52.4174L8.63177 51.8307ZM8.68386 51.8992L8.62526 51.8219L7.82845 52.4261L7.88704 52.5034L8.68386 51.8992ZM8.72917 51.9583L8.68229 51.8971L7.88861 52.5055L7.93548 52.5666L8.72917 51.9583ZM9.38682 52.9012C9.17676 52.5913 8.95946 52.2823 8.74013 51.9731L7.92452 52.5518C8.14269 52.8593 8.35508 53.1614 8.55907 53.4623L9.38682 52.9012ZM10.0286 53.8755C9.82174 53.5477 9.60731 53.2232 9.3855 52.8993L8.5604 53.4643C8.77609 53.7792 8.98354 54.0932 9.18291 54.4092L10.0286 53.8755ZM11.6225 57.5583C11.3359 56.1927 10.7364 55.0027 10.0292 53.8764L9.18232 54.4082C9.85794 55.4842 10.3912 56.56 10.6438 57.7637L11.6225 57.5583ZM12.2564 61.2568C12.0729 60.0413 11.8758 58.7719 11.6226 57.5588L10.6437 57.7632C10.8905 58.9456 11.084 60.1897 11.2676 61.4061L12.2564 61.2568ZM12.56 63.1732C12.4549 62.5367 12.3581 61.8997 12.2559 61.2533L11.2681 61.4095C11.3691 62.0478 11.4676 62.6955 11.5734 63.3361L12.56 63.1732ZM16.772 67.5928C14.5493 67.1213 12.9402 65.4344 12.5598 63.1717L11.5736 63.3375C12.0213 66.0007 13.9356 68.0134 16.5645 68.571L16.772 67.5928ZM22.4019 65.2565C21.1701 67.1438 18.9631 68.0601 16.7726 67.5929L16.564 68.5709C19.1625 69.1252 21.7836 68.0335 23.2393 65.8031L22.4019 65.2565ZM27.1481 57.9899L22.402 65.2564L23.2392 65.8032L27.9853 58.5367L27.1481 57.9899ZM28.5003 57.2571C28.2471 57.2571 27.5845 57.3268 27.149 57.9884L27.9844 58.5382C28.1505 58.2857 28.3941 58.2571 28.5003 58.2571V57.2571ZM29.8491 57.9906C29.4177 57.3275 28.7532 57.2571 28.5003 57.2571V58.2571C28.6067 58.2571 28.8485 58.2865 29.0109 58.536L29.8491 57.9906ZM34.5947 65.2564L29.8486 57.9899L29.0114 58.5367L33.7575 65.8032L34.5947 65.2564ZM39.094 67.712C37.3021 67.712 35.6157 66.8184 34.5946 65.2562L33.7575 65.8033C34.963 67.6477 36.9641 68.712 39.094 68.712V67.712ZM39.4955 67.6972C39.3585 67.7071 39.226 67.712 39.094 67.712V68.712C39.2511 68.712 39.4077 68.7062 39.5676 68.6946L39.4955 67.6972ZM39.7969 67.6661L39.4805 67.6985L39.5826 68.6933L39.899 68.6608L39.7969 67.6661ZM40.2248 67.5928C40.078 67.6239 39.9312 67.6487 39.7844 67.6675L39.9115 68.6594C40.085 68.6372 40.2586 68.6078 40.4321 68.5711L40.2248 67.5928ZM44.4408 63.1717C44.0605 65.4331 42.4478 67.1213 40.2247 67.5928L40.4322 68.571C43.0606 68.0135 44.9792 66.0003 45.427 63.3376L44.4408 63.1717ZM44.7404 61.2591C44.6426 61.9012 44.5454 62.5389 44.4406 63.1731L45.4272 63.3362C45.5333 62.6947 45.6314 62.0507 45.729 61.4096L44.7404 61.2591ZM45.378 57.5589C45.1249 58.7724 44.9277 60.0435 44.7405 61.2582L45.7288 61.4105C45.9166 60.1921 46.1101 58.9466 46.3569 57.7631L45.378 57.5589ZM48.3069 51.9126C47.0758 53.6538 45.8327 55.397 45.3782 57.5581L46.3568 57.7639C46.7616 55.8393 47.8701 54.2624 49.1234 52.49L48.3069 51.9126ZM49.7792 49.7417C49.3076 50.4976 48.8041 51.2104 48.3071 51.9124L49.1232 52.4902C49.6184 51.7909 50.1383 51.0553 50.6276 50.271L49.7792 49.7417ZM54.2385 40.8605C53.17 43.743 51.7175 46.6473 49.7797 49.7409L50.6272 50.2718C52.5956 47.1293 54.0805 44.1638 55.1762 41.2081L54.2385 40.8605ZM51.4924 21.2241C56.2832 25.5707 57.3337 32.4919 54.2384 40.8609L55.1763 41.2077C58.3544 32.6148 57.3658 25.2027 52.1644 20.4835L51.4924 21.2241ZM48.1391 48.6877C49.9936 45.7204 51.3968 42.9334 52.4185 40.1697L51.4805 39.823C50.4866 42.5114 49.1164 45.2371 47.2911 48.1577L48.1391 48.6877ZM46.8239 50.6284C47.2579 50.0089 47.7243 49.3529 48.1394 48.6873L47.2909 48.1582C46.8934 48.7955 46.4458 49.4252 46.0048 50.0547L46.8239 50.6284ZM46.7309 50.7619L46.8247 50.6273L46.004 50.0558L45.9103 50.1905L46.7309 50.7619ZM43.478 57.1477C44.0084 54.6151 45.3556 52.7013 46.7285 50.7654L45.9128 50.187C44.5513 52.1068 43.0781 54.1788 42.4992 56.9427L43.478 57.1477ZM42.8227 60.9558C43.0144 59.6971 43.2117 58.411 43.4778 57.1483L42.4993 56.942C42.2264 58.2367 42.0252 59.5502 41.8341 60.8052L42.8227 60.9558ZM42.5206 62.8426C42.6267 62.2153 42.7249 61.5848 42.8225 60.9573L41.8344 60.8037C41.7366 61.4321 41.6395 62.0561 41.5346 62.6758L42.5206 62.8426ZM39.8266 65.6656C40.9315 65.4315 42.2332 64.5637 42.5208 62.8415L41.5345 62.6768C41.3298 63.9023 40.4207 64.5175 39.6193 64.6874L39.8266 65.6656ZM36.2147 64.1701C37.1738 65.6359 38.7183 65.8996 39.8262 65.6657L39.6197 64.6873C38.8136 64.8575 37.733 64.6641 37.0515 63.6226L36.2147 64.1701ZM31.4684 56.9032L36.2145 64.1698L37.0517 63.6229L32.3056 56.3563L31.4684 56.9032ZM28.5003 55.2882C29.6978 55.2882 30.8098 55.8907 31.4679 56.9024L32.3062 56.3571C31.4642 55.0627 30.0372 54.2882 28.5003 54.2882V55.2882ZM25.5282 56.9034C26.1905 55.8904 27.2994 55.2882 28.5003 55.2882V54.2882C26.959 54.2882 25.5367 55.063 24.6912 56.3561L25.5282 56.9034ZM20.7822 64.1698L25.5283 56.9032L24.691 56.3563L19.945 63.6229L20.7822 64.1698ZM17.1705 65.6657C18.2784 65.8996 19.8228 65.6359 20.782 64.1701L19.9452 63.6226C19.2637 64.6641 18.1831 64.8575 17.377 64.6873L17.1705 65.6657ZM14.4759 62.8415C14.7635 64.5643 16.0697 65.4314 17.1696 65.6656L17.3778 64.6875C16.5793 64.5175 15.6667 63.9018 15.4622 62.6768L14.4759 62.8415ZM14.1776 60.9512C14.2717 61.5819 14.3698 62.2139 14.476 62.8424L15.4621 62.6759C15.3573 62.0559 15.2602 61.4306 15.1667 60.8037L14.1776 60.9512ZM14.1556 60.8206L14.1791 60.9602L15.1653 60.7947L15.1418 60.655L14.1556 60.8206ZM13.8276 58.7629C13.9441 59.4498 14.0489 60.1349 14.1547 60.8147L15.1428 60.6609C15.0376 59.9849 14.9315 59.2911 14.8136 58.5957L13.8276 58.7629ZM13.5226 57.1481C13.6344 57.6833 13.7348 58.2234 13.8278 58.7641L14.8134 58.5946C14.7189 58.0452 14.6162 57.493 14.5014 56.9436L13.5226 57.1481ZM10.2718 50.7657C11.641 52.7012 12.9884 54.6152 13.5228 57.1491L14.5013 56.9427C13.9184 54.1787 12.4455 52.1069 11.0882 50.1882L10.2718 50.7657ZM8.86079 48.6874C9.30372 49.4001 9.80089 50.1017 10.2721 50.7662L11.0878 50.1877C10.6138 49.5192 10.1344 48.8421 9.71011 48.1595L8.86079 48.6874ZM6.70121 44.9233C7.34064 46.1531 8.05825 47.4039 8.86151 48.6885L9.70939 48.1584C8.9189 46.8942 8.21463 45.6663 7.58844 44.462L6.70121 44.9233ZM4.58197 40.1701C5.16008 41.7374 5.86029 43.3125 6.70159 44.924L7.58806 44.4612C6.7653 42.8852 6.08269 41.349 5.52018 39.824L4.58197 40.1701ZM6.80093 22.6914C3.9491 25.2805 3.00633 28.6129 2.96908 31.7993C2.93194 34.9763 3.79249 38.0403 4.58225 40.1709L5.5199 39.8233C4.75106 37.7492 3.93388 34.8155 3.96901 31.811C4.00402 28.8157 4.88351 25.7828 7.4731 23.4318L6.80093 22.6914ZM12.8245 20.422C10.6829 20.422 8.59672 21.0608 6.80089 22.6915L7.47314 23.4318C9.06012 21.9907 10.8958 21.422 12.8245 21.422V20.422ZM25.9858 26.0747C24.3902 24.866 22.3099 23.4579 20.0325 22.3503C17.7599 21.245 15.2568 20.422 12.8245 20.422V21.422C15.0446 21.422 17.391 22.1776 19.5951 23.2496C21.7942 24.3191 23.8174 25.6866 25.382 26.8718L25.9858 26.0747ZM31.015 26.0746C29.5057 27.2168 27.4908 27.2163 25.9861 26.0749L25.3817 26.8716C27.2442 28.2844 29.7527 28.284 31.6184 26.872L31.015 26.0746ZM50.1958 22.6915C47.2312 19.9987 43.5158 20.0258 40.0568 21.1064C36.6014 22.1858 33.3009 24.3415 31.0146 26.0748L31.6188 26.8717C33.8715 25.1638 37.0632 23.0892 40.355 22.0609C43.643 21.0338 46.9296 21.0757 49.5235 23.4318L50.1958 22.6915ZM52.4185 40.1697C53.2062 38.0394 54.0657 34.9752 54.0281 31.7983C53.9903 28.612 53.0476 25.2797 50.1957 22.6914L49.5236 23.4319C52.1132 25.7821 52.9927 28.8148 53.0282 31.8101C53.0638 34.8148 52.2475 37.7487 51.4805 39.8229L52.4185 40.1697Z" fill="white" mask="url(#path-2-inside-1)"/>
<path d="M21.1911 33.7957C21.1911 31.5474 19.228 29.7247 16.8065 29.7247C14.3849 29.7247 12.4219 31.5474 12.4219 33.7957" stroke="#3C362A" stroke-width="2" stroke-linecap="round"/>
<path d="M35.8068 40.8274C35.8068 43.6888 32.535 46.0085 28.4991 46.0085C24.4632 46.0085 21.1914 43.6888 21.1914 40.8274" stroke="#3C362A" stroke-width="2.5" stroke-linecap="round"/>
<path d="M44.5778 33.7957C44.5778 31.5474 42.6148 29.7247 40.1932 29.7247C37.7717 29.7247 35.8086 31.5474 35.8086 33.7957" stroke="#3C362A" stroke-width="2" stroke-linecap="round"/>
</svg>
