<svg width="60" height="60" viewBox="0 0 60 60" fill="none" xmlns="http://www.w3.org/2000/svg">
<path fill-rule="evenodd" clip-rule="evenodd" d="M30 58C45.464 58 58 45.464 58 30C58 14.536 45.464 2 30 2C14.536 2 2 14.536 2 30C2 45.464 14.536 58 30 58Z" fill="white"/>
<path fill-rule="evenodd" clip-rule="evenodd" d="M0.6875 30C0.6875 46.189 13.8125 59.3125 30 59.3125C46.1875 59.3125 59.3125 46.189 59.3125 30C59.3125 13.811 46.1875 0.6875 30 0.6875C13.8125 0.6875 0.6875 13.811 0.6875 30ZM56.6875 30C56.6875 44.739 44.7383 56.6875 30 56.6875C15.2617 56.6875 3.3125 44.739 3.3125 30C3.3125 15.261 15.2617 3.3125 30 3.3125C44.7383 3.3125 56.6875 15.261 56.6875 30Z" fill="black"/>
<path d="M47.3346 38.1782C47.0438 42.3345 45.2031 45.3724 42.3999 47.438C39.299 49.7229 34.9367 50.875 30 50.875C25.0633 50.875 20.701 49.7229 17.6001 47.438C14.7648 45.3488 12.9142 42.265 12.6561 38.0352C13.9523 38.1208 15.2793 38.3526 16.8138 38.6207C22.105 39.5451 29.8638 40.9007 47.3346 38.1782Z" fill="#EA5A47"/>
<path d="M47.3346 38.1782C47.0438 42.3345 45.2031 45.3724 42.3999 47.438C39.299 49.7229 34.9367 50.875 30 50.875C25.0633 50.875 20.701 49.7229 17.6001 47.438C14.7648 45.3488 12.9142 42.265 12.6561 38.0352C13.9523 38.1208 15.2793 38.3526 16.8138 38.6207C22.105 39.5451 29.8638 40.9007 47.3346 38.1782Z" fill="white"/>
<path d="M47.3346 38.1782C47.0438 42.3345 45.2031 45.3724 42.3999 47.438C39.299 49.7229 34.9367 50.875 30 50.875C25.0633 50.875 20.701 49.7229 17.6001 47.438C14.7648 45.3488 12.9142 42.265 12.6561 38.0352C13.9523 38.1208 15.2793 38.3526 16.8138 38.6207C22.105 39.5451 29.8638 40.9007 47.3346 38.1782Z" stroke="black" stroke-width="2"/>
<path d="M46.6573 40.4803C44.0773 42.466 40.4337 43.5852 37.1075 44.1986C33.7467 44.8183 30.8464 44.8978 30 44.8978C29.3284 44.8978 26.5987 44.8086 23.4149 44.3187C20.2444 43.8308 16.7697 42.9661 14.4017 41.4938C13.7977 40.8761 13.3974 40.4299 13.115 39.8441C12.9051 39.4085 12.7414 38.8513 12.6677 38.036C13.9602 38.1222 15.2839 38.3534 16.8138 38.6207C22.1066 39.5454 29.8682 40.9014 47.3495 38.1758C47.3247 38.6321 47.2809 38.96 47.2147 39.2355C47.1184 39.6363 46.9648 39.9676 46.6573 40.4803Z" fill="white" stroke="black" stroke-width="2"/>
<path d="M23.875 26.9375C23.875 24.2796 21.5245 22.125 18.625 22.125C15.7255 22.125 13.375 24.2796 13.375 26.9375" stroke="#3C362A" stroke-width="2" stroke-linecap="round"/>
<path d="M46.625 26.9375C46.625 24.2796 44.2745 22.125 41.375 22.125C38.4755 22.125 36.125 24.2796 36.125 26.9375" stroke="#3C362A" stroke-width="2" stroke-linecap="round"/>
</svg>
